<?xml version="1.0" encoding="UTF-8"?>
<!-- Generator: visioncortex VTracer 0.6.12 -->
<svg viewBox="0 0 601 217" role="img" aria-labelledby="title" aria-describedby="desc" version="1.1" xmlns="http://www.w3.org/2000/svg" width="601" height="217">
<title id="title">Pac-Man ở góc trên bên trái</title><desc id="desc">Pac-Man hướng lên ở hành lang trái; các chấm trắng còn nằm dọc phần giữa và bên phải mê cung.</desc>
<path d="M0 0 C198.33 0 396.66 0 601 0 C601 71.61 601 143.22 601 217 C402.67 217 204.34 217 0 217 C0 145.39 0 73.78 0 0 Z " fill="#000000" transform="translate(0,0)"/>
<path d="M0 0 C198.33 0 396.66 0 601 0 C601 71.61 601 143.22 601 217 C402.67 217 204.34 217 0 217 C0 145.39 0 73.78 0 0 Z M20 26 C18.85 28.29 18.87 29.58 18.87 32.12 C18.86 32.99 18.86 33.85 18.85 34.74 C18.85 35.69 18.85 36.64 18.85 37.62 C18.85 38.62 18.85 39.62 18.84 40.64 C18.84 43.96 18.83 47.27 18.83 50.59 C18.83 52.88 18.83 55.18 18.82 57.48 C18.82 62.3 18.81 67.12 18.81 71.94 C18.82 77.51 18.8 83.08 18.79 88.65 C18.77 94.01 18.77 99.37 18.77 104.72 C18.77 107 18.77 109.28 18.76 111.56 C18.75 114.75 18.75 117.94 18.76 121.12 C18.75 122.07 18.75 123.01 18.74 123.99 C18.74 124.86 18.75 125.73 18.75 126.62 C18.75 127 18.75 127 18.75 128.9 C19.04 131.33 19.71 132.93 21 135 C24.16 136.58 27.55 136.15 31.02 136.16 C31.44 136.16 31.44 136.16 33.57 136.17 C36.39 136.19 39.22 136.2 42.05 136.21 C44.07 136.21 46.09 136.22 48.11 136.24 C53.6 136.26 59.1 136.28 64.6 136.3 C70.34 136.33 76.08 136.35 81.82 136.38 C91.46 136.42 101.1 136.46 110.74 136.5 C120.67 136.54 130.6 136.58 140.52 136.63 C141.14 136.63 141.75 136.63 142.38 136.64 C145.45 136.65 148.52 136.66 151.59 136.68 C177.06 136.79 202.53 136.9 228 137 C228.01 137.67 228.02 138.34 228.02 139.02 C228.1 145.32 228.19 151.62 228.29 157.91 C228.34 161.15 228.38 164.39 228.42 167.63 C228.46 170.75 228.51 173.88 228.56 177 C228.58 178.19 228.59 179.39 228.6 180.58 C228.62 182.25 228.65 183.92 228.68 185.59 C228.69 186.06 228.69 186.06 228.72 188.47 C229.01 191.12 229.57 192.76 231 195 C233.66 196.33 235.67 196.13 238.66 196.13 C238.95 196.13 238.95 196.13 240.44 196.14 C242.42 196.14 244.41 196.14 246.39 196.14 C247.82 196.14 249.26 196.15 250.69 196.15 C254.63 196.16 258.58 196.16 262.52 196.16 C266.77 196.16 271.03 196.17 275.28 196.18 C284.57 196.19 293.87 196.2 303.17 196.2 C308.98 196.2 314.78 196.21 320.58 196.21 C336.63 196.22 352.69 196.23 368.74 196.24 C369.25 196.24 369.25 196.24 371.85 196.24 C372.88 196.24 373.91 196.24 374.98 196.24 C377.06 196.24 379.15 196.24 381.24 196.24 C382.28 196.24 383.31 196.24 384.38 196.24 C401.17 196.24 417.97 196.26 434.76 196.29 C451.99 196.31 469.22 196.32 486.44 196.32 C496.12 196.32 505.8 196.33 515.48 196.35 C523.72 196.36 531.96 196.37 540.2 196.36 C544.41 196.36 548.61 196.36 552.82 196.37 C556.67 196.38 560.51 196.38 564.36 196.37 C565.76 196.37 567.15 196.37 568.55 196.38 C570.44 196.39 572.33 196.38 574.22 196.37 C575.27 196.37 576.32 196.37 577.4 196.37 C580 196 580 196 581.84 194.66 C583.65 192.07 583.41 189.37 583.38 186.32 C583.39 185.64 583.39 184.95 583.4 184.25 C583.41 181.96 583.4 179.67 583.39 177.38 C583.39 175.74 583.4 174.1 583.4 172.45 C583.42 167.99 583.41 163.53 583.4 159.07 C583.4 154.41 583.4 149.75 583.41 145.08 C583.41 137.25 583.41 129.42 583.39 121.59 C583.37 112.53 583.38 103.47 583.4 94.41 C583.41 86.63 583.41 78.86 583.4 71.09 C583.4 66.44 583.4 61.8 583.41 57.15 C583.42 52.79 583.41 48.42 583.39 44.05 C583.39 42.45 583.39 40.84 583.4 39.24 C583.41 37.05 583.4 34.87 583.38 32.68 C583.39 32.04 583.39 31.4 583.4 30.74 C583.37 28.1 583.23 26.34 581.75 24.11 C579.54 22.71 578.17 22.62 575.55 22.62 C574.64 22.61 573.73 22.6 572.8 22.59 C572.3 22.6 572.3 22.6 569.78 22.61 C568.73 22.61 567.68 22.6 566.59 22.6 C563.71 22.58 560.83 22.59 557.95 22.6 C554.94 22.6 551.93 22.6 548.92 22.59 C543.86 22.59 538.8 22.59 533.74 22.61 C527.89 22.63 522.04 22.62 516.19 22.6 C511.17 22.59 506.14 22.59 501.12 22.6 C498.12 22.6 495.12 22.6 492.12 22.59 C488.78 22.58 485.44 22.6 482.09 22.61 C481.59 22.61 481.59 22.61 479.07 22.59 C478.16 22.6 477.26 22.61 476.32 22.62 C475.53 22.62 474.74 22.62 473.92 22.62 C473.61 22.68 473.61 22.68 472 23 C461.08 39.38 469.35 62.31 469 82 C378.25 82 287.5 82 194 82 C193.67 81.01 193.34 80.02 193 79 C193.33 78.34 193.66 77.68 194 77 C194.5 77 195 77 195.51 77 C225.02 76.94 254.53 76.87 284.04 76.77 C287.58 76.76 291.12 76.75 294.67 76.74 C295.37 76.74 296.08 76.73 296.8 76.73 C308.23 76.7 319.65 76.67 331.07 76.65 C342.79 76.63 354.51 76.59 366.23 76.55 C373.46 76.52 380.69 76.51 387.93 76.5 C392.88 76.5 397.84 76.48 402.8 76.45 C405.66 76.44 408.52 76.43 411.38 76.43 C414.48 76.44 417.58 76.42 420.68 76.4 C421.13 76.4 421.13 76.4 423.44 76.41 C423.85 76.41 423.85 76.41 425.95 76.38 C426.66 76.38 427.38 76.38 428.11 76.38 C430.57 75.89 431.47 74.94 433 73 C433.38 70.88 433.38 70.88 433.39 68.39 C433.4 67.46 433.41 66.53 433.42 65.57 C433.41 64.57 433.4 63.56 433.4 62.53 C433.4 61.5 433.4 60.47 433.41 59.4 C433.41 57.22 433.4 55.04 433.39 52.86 C433.38 49.51 433.39 46.17 433.41 42.82 C433.41 40.71 433.4 38.59 433.4 36.47 C433.4 35.97 433.4 35.97 433.42 33.43 C433.41 32.5 433.4 31.57 433.39 30.61 C433.39 29.79 433.38 28.97 433.38 28.12 C432.9 25.42 432.15 24.68 430 23 C427.79 22.62 427.79 22.62 425.16 22.62 C424.15 22.61 423.15 22.61 422.12 22.6 C421.01 22.61 419.9 22.61 418.76 22.62 C417.58 22.62 416.4 22.61 415.21 22.6 C411.95 22.59 408.69 22.6 405.43 22.61 C401.92 22.61 398.41 22.6 394.89 22.6 C388.01 22.58 381.12 22.59 374.24 22.59 C368.64 22.6 363.05 22.6 357.46 22.6 C356.66 22.6 355.87 22.6 355.05 22.6 C353.43 22.6 351.82 22.6 350.2 22.59 C335.04 22.59 319.88 22.6 304.73 22.61 C291.71 22.63 278.7 22.62 265.68 22.61 C250.58 22.59 235.48 22.59 220.37 22.6 C218.76 22.6 217.15 22.6 215.54 22.6 C215.15 22.6 215.15 22.6 213.14 22.6 C207.55 22.6 201.97 22.6 196.38 22.59 C189.57 22.58 182.76 22.58 175.95 22.6 C172.48 22.61 169 22.61 165.52 22.6 C162.34 22.59 159.17 22.6 155.99 22.61 C154.29 22.62 152.59 22.61 150.88 22.6 C149.88 22.61 148.88 22.61 147.84 22.62 C147.41 22.62 147.41 22.62 145.21 22.62 C142.51 23.08 141.62 23.83 140 26 C139.6 28.49 139.6 28.49 139.57 31.48 C139.55 32.6 139.53 33.72 139.51 34.88 C139.5 36.1 139.49 37.32 139.49 38.54 C139.47 39.79 139.45 41.05 139.43 42.3 C139.39 45.59 139.36 48.88 139.33 52.17 C139.3 55.52 139.25 58.88 139.21 62.24 C139.12 68.83 139.06 75.41 139 82 C137.35 82 135.7 82 134 82 C132.99 78.97 132.9 77.01 132.93 73.84 C132.94 72.79 132.95 71.74 132.96 70.66 C132.98 69.52 132.99 68.39 133.01 67.22 C133.02 66.04 133.03 64.87 133.03 63.69 C133.07 58.69 133.11 53.7 133.17 48.71 C133.21 45.65 133.23 42.59 133.25 39.53 C133.26 37.8 133.29 36.07 133.31 34.34 C133.32 33.29 133.32 32.24 133.32 31.16 C133.33 30.23 133.34 29.31 133.35 28.35 C132.92 25.47 132.26 24.78 130 23 C127.97 22.62 127.97 22.62 125.6 22.62 C124.7 22.61 123.8 22.6 122.87 22.59 C121.88 22.6 120.9 22.61 119.88 22.61 C118.85 22.61 117.81 22.6 116.74 22.6 C113.89 22.58 111.04 22.59 108.19 22.6 C105.21 22.6 102.23 22.6 99.24 22.59 C94.24 22.59 89.23 22.59 84.22 22.61 C78.43 22.63 72.65 22.62 66.86 22.6 C61.89 22.59 56.92 22.59 51.95 22.6 C48.98 22.6 46.01 22.6 43.04 22.59 C39.73 22.58 36.42 22.6 33.12 22.61 C32.13 22.61 31.15 22.6 30.13 22.59 C29.23 22.6 28.33 22.61 27.4 22.62 C27.01 22.62 27.01 22.62 25.03 22.62 C22.47 23.1 21.61 23.99 20 26 Z " fill="#000000" transform="translate(0,0)"/>
<path d="M0 0 C198.33 0 396.66 0 601 0 C601 71.61 601 143.22 601 217 C402.67 217 204.34 217 0 217 C0 145.39 0 73.78 0 0 Z M13 17 C12.9 19.38 12.87 21.72 12.87 24.1 C12.87 24.85 12.87 25.6 12.87 26.38 C12.86 28.91 12.87 31.45 12.87 33.99 C12.87 35.8 12.87 37.61 12.87 39.42 C12.86 44.36 12.86 49.29 12.87 54.22 C12.87 59.37 12.87 64.53 12.86 69.68 C12.86 78.33 12.86 86.98 12.87 95.63 C12.88 105.65 12.87 115.67 12.87 125.69 C12.86 134.27 12.86 142.86 12.87 151.44 C12.87 156.58 12.87 161.71 12.86 166.85 C12.86 171.67 12.86 176.5 12.87 181.33 C12.87 183.1 12.87 184.88 12.87 186.66 C12.86 189.07 12.87 191.49 12.87 193.9 C12.87 194.61 12.87 195.33 12.87 196.06 C12.89 200.89 12.89 200.89 14 202 C15.64 202.13 15.64 202.13 17.81 202.13 C18.64 202.13 19.46 202.13 20.31 202.13 C21.23 202.13 22.15 202.13 23.1 202.13 C24.07 202.13 25.04 202.13 26.04 202.13 C29.34 202.13 32.64 202.13 35.94 202.13 C38.31 202.13 40.69 202.13 43.06 202.13 C48.24 202.14 53.42 202.14 58.6 202.13 C66.3 202.13 74 202.13 81.7 202.13 C95.45 202.14 109.21 202.14 122.96 202.14 C134.99 202.13 147.03 202.13 159.06 202.13 C159.46 202.13 159.46 202.13 161.48 202.13 C164.71 202.13 167.94 202.13 171.18 202.14 C201.55 202.14 231.92 202.14 262.29 202.13 C289.3 202.13 316.31 202.13 343.31 202.13 C373.63 202.14 403.94 202.14 434.25 202.13 C437.48 202.13 440.71 202.13 443.94 202.13 C444.73 202.13 445.53 202.13 446.35 202.13 C458.38 202.13 470.41 202.13 482.44 202.14 C496.11 202.14 509.78 202.14 523.45 202.13 C531.11 202.13 538.77 202.13 546.44 202.13 C551.54 202.14 556.65 202.13 561.76 202.13 C564.67 202.13 567.59 202.13 570.51 202.13 C573.64 202.13 576.77 202.13 579.9 202.13 C580.82 202.13 581.74 202.13 582.69 202.13 C583.51 202.13 584.34 202.13 585.19 202.13 C585.55 202.13 585.55 202.13 587.36 202.13 C589 202 589 202 590 201 C590.1 198.62 590.13 196.28 590.13 193.9 C590.13 193.15 590.13 192.4 590.13 191.62 C590.14 189.09 590.13 186.55 590.13 184.01 C590.13 182.2 590.13 180.39 590.13 178.58 C590.14 173.64 590.14 168.71 590.13 163.78 C590.13 158.63 590.13 153.47 590.14 148.32 C590.14 139.67 590.14 131.02 590.13 122.37 C590.12 112.35 590.13 102.33 590.13 92.31 C590.14 83.73 590.14 75.14 590.13 66.56 C590.13 61.42 590.13 56.29 590.14 51.15 C590.14 46.33 590.14 41.5 590.13 36.67 C590.13 34.9 590.13 33.12 590.13 31.34 C590.14 28.93 590.13 26.51 590.13 24.1 C590.13 23.39 590.13 22.67 590.13 21.94 C590.11 17.11 590.11 17.11 589 16 C587.36 15.87 587.36 15.87 585.19 15.87 C584.36 15.87 583.54 15.87 582.69 15.87 C581.77 15.87 580.85 15.87 579.9 15.87 C578.93 15.87 577.96 15.87 576.96 15.87 C573.66 15.87 570.36 15.87 567.06 15.87 C564.69 15.87 562.31 15.87 559.94 15.87 C554.76 15.86 549.58 15.86 544.4 15.87 C536.7 15.87 529 15.87 521.3 15.87 C507.55 15.86 493.79 15.86 480.04 15.86 C468.01 15.87 455.97 15.87 443.94 15.87 C443.14 15.87 442.35 15.87 441.52 15.87 C438.29 15.87 435.06 15.87 431.82 15.86 C401.45 15.86 371.08 15.86 340.71 15.87 C313.7 15.87 286.69 15.87 259.69 15.87 C229.37 15.86 199.06 15.86 168.75 15.87 C165.52 15.87 162.29 15.87 159.06 15.87 C158.27 15.87 157.47 15.87 156.65 15.87 C144.62 15.87 132.59 15.87 120.56 15.86 C106.89 15.86 93.22 15.86 79.55 15.87 C71.89 15.87 64.23 15.87 56.56 15.87 C51.46 15.86 46.35 15.87 41.24 15.87 C38.33 15.87 35.41 15.87 32.49 15.87 C29.36 15.87 26.23 15.87 23.1 15.87 C22.18 15.87 21.26 15.87 20.31 15.87 C19.49 15.87 18.66 15.87 17.81 15.87 C17.45 15.87 17.45 15.87 15.64 15.87 C14 16 14 16 13 17 Z " fill="#000000" transform="translate(0,0)"/>
<path d="M0 0 C0.9 -0.01 1.8 -0.01 2.72 -0.02 C3.22 -0.02 3.22 -0.02 5.72 -0.02 C6.24 -0.02 6.24 -0.02 8.87 -0.04 C11.72 -0.05 14.57 -0.06 17.43 -0.06 C19.21 -0.06 20.99 -0.07 22.77 -0.07 C28.35 -0.08 33.92 -0.09 39.5 -0.1 C45.93 -0.1 52.37 -0.12 58.81 -0.15 C63.78 -0.17 68.76 -0.18 73.73 -0.18 C76.7 -0.18 79.67 -0.19 82.65 -0.21 C85.96 -0.22 89.27 -0.22 92.59 -0.22 C93.08 -0.22 93.08 -0.22 95.58 -0.24 C96.48 -0.24 97.38 -0.23 98.31 -0.23 C99.09 -0.23 99.88 -0.23 100.68 -0.23 C103.26 0.24 104.14 1.09 105.72 3.14 C106.07 5.54 106.07 5.54 106.04 8.41 C106.04 9.48 106.04 10.56 106.03 11.66 C106.01 12.83 105.99 14 105.98 15.18 C105.97 16.38 105.96 17.58 105.96 18.78 C105.94 21.94 105.9 25.1 105.87 28.26 C105.81 33.32 105.77 38.39 105.74 43.45 C105.73 45.22 105.7 46.99 105.68 48.76 C105.68 49.29 105.68 49.29 105.65 52 C105.65 52.48 105.65 52.48 105.62 54.87 C105.72 57.14 105.72 57.14 106.72 59.14 C108.37 59.14 110.02 59.14 111.72 59.14 C111.72 58.79 111.72 58.79 111.74 57.03 C111.79 50.49 111.87 43.94 111.95 37.39 C112 34.03 112.04 30.66 112.06 27.29 C112.09 24.04 112.13 20.8 112.18 17.55 C112.2 16.31 112.21 15.07 112.22 13.83 C112.22 12.09 112.25 10.36 112.29 8.62 C112.3 7.63 112.31 6.65 112.32 5.63 C112.8 2.65 113.36 1.95 115.72 0.14 C117.93 -0.24 117.93 -0.24 120.56 -0.24 C121.06 -0.24 121.06 -0.24 123.6 -0.26 C124.71 -0.25 125.81 -0.25 126.95 -0.24 C128.14 -0.24 129.32 -0.25 130.51 -0.25 C133.77 -0.27 137.03 -0.26 140.29 -0.25 C143.8 -0.24 147.31 -0.26 150.83 -0.26 C157.71 -0.28 164.6 -0.27 171.48 -0.27 C177.07 -0.26 182.67 -0.26 188.26 -0.26 C189.06 -0.26 189.85 -0.26 190.67 -0.26 C192.29 -0.26 193.9 -0.26 195.52 -0.27 C210.68 -0.27 225.83 -0.26 240.99 -0.25 C254.01 -0.23 267.02 -0.24 280.04 -0.25 C295.14 -0.27 310.24 -0.27 325.34 -0.26 C326.95 -0.26 328.56 -0.26 330.17 -0.26 C330.97 -0.26 331.76 -0.26 332.57 -0.26 C338.16 -0.26 343.75 -0.26 349.34 -0.27 C356.15 -0.28 362.96 -0.27 369.77 -0.26 C373.24 -0.25 376.72 -0.25 380.19 -0.26 C383.37 -0.27 386.55 -0.26 389.73 -0.25 C391.43 -0.24 393.13 -0.25 394.83 -0.26 C395.84 -0.25 396.84 -0.25 397.87 -0.24 C398.74 -0.24 399.61 -0.24 400.51 -0.24 C403.2 0.22 404.09 0.99 405.72 3.14 C406.1 5.27 406.1 5.27 406.11 7.75 C406.12 8.68 406.12 9.61 406.13 10.57 C406.13 11.07 406.13 11.07 406.12 13.61 C406.12 14.64 406.12 15.67 406.12 16.74 C406.13 18.92 406.12 21.1 406.11 23.28 C406.09 26.63 406.11 29.97 406.13 33.32 C406.13 35.43 406.12 37.55 406.12 39.67 C406.12 40.67 406.13 41.68 406.13 42.71 C406.12 43.64 406.12 44.57 406.11 45.53 C406.1 46.35 406.1 47.17 406.1 48.02 C405.62 50.7 404.82 51.45 402.72 53.14 C400.83 53.52 400.83 53.52 398.66 53.53 C398.25 53.53 398.25 53.53 396.15 53.55 C395.7 53.55 395.7 53.55 393.4 53.54 C392.43 53.55 391.46 53.55 390.47 53.56 C387.22 53.58 383.97 53.58 380.71 53.57 C378.39 53.58 376.06 53.59 373.74 53.6 C368.72 53.63 363.71 53.64 358.69 53.64 C351.44 53.65 344.2 53.67 336.95 53.7 C325.18 53.74 313.42 53.77 301.66 53.79 C290.24 53.82 278.81 53.84 267.38 53.88 C267.03 53.88 267.03 53.88 265.25 53.88 C261.72 53.9 258.18 53.91 254.65 53.92 C225.34 54.01 196.03 54.08 166.72 54.14 C166.39 55.13 166.06 56.12 165.72 57.14 C166.05 57.8 166.38 58.46 166.72 59.14 C257.47 59.14 348.22 59.14 441.72 59.14 C442.05 40.66 442.38 22.18 442.72 3.14 C443.38 2.15 444.04 1.16 444.72 0.14 C446.64 -0.24 446.64 -0.24 449.04 -0.24 C449.95 -0.25 450.85 -0.26 451.79 -0.27 C452.29 -0.26 452.29 -0.26 454.81 -0.25 C455.86 -0.25 456.91 -0.26 457.99 -0.26 C460.87 -0.27 463.75 -0.27 466.63 -0.26 C469.64 -0.25 472.65 -0.26 475.67 -0.27 C480.73 -0.27 485.79 -0.26 490.85 -0.25 C496.7 -0.23 502.55 -0.24 508.4 -0.26 C513.42 -0.27 518.44 -0.27 523.46 -0.26 C526.46 -0.26 529.46 -0.26 532.46 -0.27 C535.81 -0.28 539.15 -0.26 542.49 -0.25 C543.49 -0.25 544.49 -0.26 545.51 -0.27 C546.42 -0.26 547.33 -0.25 548.27 -0.24 C548.67 -0.24 548.67 -0.24 550.67 -0.24 C552.72 0.14 552.72 0.14 554.47 1.25 C556.28 4 556.13 6.63 556.1 9.82 C556.1 10.16 556.1 10.16 556.11 11.89 C556.12 14.18 556.12 16.47 556.11 18.76 C556.11 20.4 556.12 22.05 556.12 23.69 C556.14 28.15 556.13 32.61 556.12 37.07 C556.11 41.73 556.12 46.39 556.12 51.06 C556.13 58.89 556.12 66.72 556.11 74.55 C556.09 83.61 556.1 92.67 556.11 101.73 C556.13 109.51 556.13 117.28 556.12 125.05 C556.12 129.7 556.12 134.34 556.13 138.99 C556.14 143.35 556.13 147.72 556.11 152.09 C556.11 153.69 556.11 155.3 556.12 156.9 C556.12 159.09 556.11 161.27 556.1 163.46 C556.1 163.78 556.1 163.78 556.12 165.4 C556.09 167.92 556.03 169.7 554.56 171.8 C551.97 173.69 550.13 173.52 546.94 173.52 C546.35 173.52 545.76 173.53 545.15 173.53 C543.17 173.54 541.19 173.53 539.2 173.52 C537.77 173.52 536.34 173.53 534.91 173.54 C530.96 173.55 527.02 173.54 523.08 173.53 C518.83 173.53 514.58 173.54 510.33 173.54 C502 173.56 493.67 173.56 485.34 173.55 C478.58 173.54 471.81 173.54 465.04 173.54 C464.56 173.54 464.56 173.54 462.13 173.54 C460.17 173.54 458.22 173.55 456.27 173.55 C437.93 173.55 419.6 173.54 401.26 173.53 C385.52 173.52 369.78 173.52 354.03 173.53 C335.77 173.55 317.5 173.55 299.23 173.54 C297.29 173.54 295.34 173.54 293.39 173.54 C292.91 173.54 292.91 173.54 290.49 173.54 C283.73 173.54 276.97 173.54 270.21 173.55 C261.97 173.56 253.73 173.56 245.5 173.54 C241.29 173.53 237.09 173.53 232.88 173.54 C229.04 173.55 225.19 173.54 221.35 173.53 C219.95 173.52 218.56 173.52 217.16 173.53 C215.27 173.54 213.39 173.53 211.5 173.52 C210.97 173.52 210.97 173.52 208.31 173.52 C205.34 173.09 204.49 172.5 202.72 170.14 C201.45 167.61 201.56 165.79 201.51 162.96 C201.49 161.88 201.47 160.79 201.45 159.68 C201.43 158.5 201.42 157.32 201.4 156.13 C201.38 154.92 201.36 153.72 201.34 152.51 C201.28 149.33 201.23 146.15 201.19 142.97 C201.14 139.73 201.08 136.48 201.02 133.24 C200.92 126.87 200.82 120.51 200.72 114.14 C199.66 114.14 198.61 114.14 197.52 114.13 C172.52 114.08 147.52 114 122.52 113.91 C119.45 113.9 116.37 113.89 113.3 113.88 C112.68 113.88 112.07 113.87 111.44 113.87 C101.52 113.84 91.6 113.81 81.68 113.79 C71.5 113.77 61.33 113.74 51.15 113.69 C45.43 113.67 39.72 113.65 34 113.64 C28.62 113.64 23.25 113.62 17.87 113.59 C15.89 113.58 13.91 113.57 11.94 113.58 C9.24 113.58 6.55 113.56 3.86 113.54 C3.07 113.54 2.28 113.55 1.47 113.55 C-3.8 113.48 -3.8 113.48 -6.23 111.74 C-8.05 108.98 -8.41 107.29 -8.42 104.02 C-8.42 103.15 -8.42 102.29 -8.43 101.4 C-8.43 100.45 -8.43 99.5 -8.43 98.52 C-8.43 97.52 -8.43 96.52 -8.44 95.5 C-8.45 92.18 -8.45 88.87 -8.45 85.55 C-8.45 83.26 -8.46 80.96 -8.46 78.66 C-8.47 73.84 -8.47 69.02 -8.47 64.2 C-8.47 58.63 -8.48 53.06 -8.49 47.49 C-8.51 42.13 -8.51 36.78 -8.51 31.42 C-8.51 29.14 -8.52 26.86 -8.52 24.58 C-8.53 21.39 -8.53 18.2 -8.53 15.02 C-8.53 14.07 -8.54 13.13 -8.54 12.15 C-8.54 11.28 -8.53 10.41 -8.53 9.52 C-8.53 8.77 -8.53 8.01 -8.53 7.24 C-8.24 4.81 -7.57 3.21 -6.28 1.14 C-3.95 -0.02 -2.59 0.01 0 0 Z M-5.54 3.4 C-6.44 5.52 -6.53 7.08 -6.54 9.39 C-6.54 10.26 -6.55 11.12 -6.55 12.02 C-6.55 12.96 -6.55 13.91 -6.54 14.89 C-6.54 15.89 -6.55 16.89 -6.55 17.92 C-6.56 21.23 -6.55 24.55 -6.55 27.86 C-6.55 30.16 -6.55 32.45 -6.55 34.75 C-6.56 39.57 -6.55 44.39 -6.54 49.21 C-6.53 54.78 -6.54 60.35 -6.55 65.92 C-6.56 71.28 -6.56 76.64 -6.55 82 C-6.55 84.28 -6.55 86.56 -6.56 88.84 C-6.56 92.02 -6.55 95.21 -6.54 98.39 C-6.55 99.34 -6.55 100.29 -6.55 101.26 C-6.55 102.13 -6.54 103 -6.54 103.89 C-6.54 104.64 -6.53 105.4 -6.53 106.17 C-6.24 108.44 -5.76 109.41 -4.28 111.14 C-2.71 111.52 -2.71 111.52 -0.8 111.53 C-0.44 111.53 -0.44 111.53 1.39 111.55 C2.19 111.55 2.99 111.54 3.82 111.54 C4.24 111.54 4.24 111.54 6.38 111.56 C9.24 111.58 12.09 111.58 14.95 111.57 C16.99 111.58 19.03 111.59 21.07 111.6 C26.62 111.63 32.17 111.64 37.72 111.65 C42.93 111.65 48.14 111.68 53.35 111.7 C63.67 111.74 73.99 111.77 84.31 111.79 C94.33 111.82 104.36 111.84 114.39 111.88 C115.01 111.88 115.62 111.88 116.26 111.88 C119.36 111.9 122.46 111.91 125.56 111.92 C151.28 112.01 177 112.08 202.72 112.14 C202.73 112.84 202.73 113.53 202.74 114.25 C202.82 120.79 202.91 127.34 203.01 133.89 C203.06 137.26 203.1 140.62 203.14 143.99 C203.18 147.24 203.22 150.49 203.28 153.73 C203.29 154.97 203.31 156.21 203.32 157.45 C203.34 159.19 203.37 160.92 203.4 162.66 C203.41 163.15 203.41 163.15 203.44 165.65 C203.73 168.29 203.88 169.26 205.72 171.14 C208.19 171.51 208.19 171.51 211.38 171.51 C211.97 171.52 212.56 171.52 213.16 171.52 C215.15 171.53 217.14 171.52 219.12 171.51 C220.56 171.51 221.99 171.51 223.42 171.52 C227.37 171.53 231.32 171.52 235.27 171.5 C239.53 171.49 243.78 171.5 248.03 171.5 C256.37 171.51 264.71 171.5 273.05 171.48 C282.75 171.47 292.46 171.46 302.16 171.46 C319.46 171.46 336.76 171.45 354.07 171.42 C370.88 171.4 387.69 171.38 404.5 171.38 C405.02 171.38 405.02 171.38 407.64 171.38 C409.72 171.38 411.81 171.38 413.89 171.38 C414.41 171.38 414.41 171.38 417.01 171.38 C418.04 171.38 419.06 171.38 420.12 171.38 C436.11 171.37 452.1 171.36 468.1 171.35 C473.9 171.35 479.71 171.34 485.52 171.34 C494.73 171.33 503.94 171.33 513.14 171.31 C517.35 171.31 521.57 171.3 525.78 171.3 C529.62 171.3 533.47 171.29 537.32 171.28 C538.72 171.28 540.12 171.28 541.52 171.28 C543.4 171.28 545.29 171.28 547.18 171.27 C548.23 171.27 549.29 171.27 550.37 171.27 C552.72 171.14 552.72 171.14 553.72 170.14 C553.82 167.98 553.85 165.85 553.84 163.69 C553.85 163 553.85 162.32 553.85 161.62 C553.85 159.32 553.85 157.02 553.85 154.71 C553.85 153.07 553.85 151.43 553.85 149.78 C553.86 145.3 553.86 140.83 553.85 136.35 C553.85 131.68 553.85 127 553.85 122.33 C553.86 114.47 553.85 106.62 553.85 98.77 C553.84 89.68 553.84 80.59 553.85 71.5 C553.85 63.7 553.85 55.91 553.85 48.12 C553.85 43.46 553.85 38.8 553.85 34.14 C553.86 29.76 553.85 25.38 553.85 21 C553.85 19.39 553.85 17.78 553.85 16.17 C553.85 13.98 553.85 11.79 553.84 9.59 C553.85 8.95 553.85 8.3 553.85 7.64 C553.83 3.25 553.83 3.25 552.72 2.14 C551.33 2.04 549.93 2.01 548.54 2.01 C547.64 2.01 546.74 2.01 545.81 2 C544.82 2.01 543.82 2.01 542.8 2.01 C541.76 2.01 540.71 2.01 539.64 2.01 C536.77 2 533.91 2 531.04 2.01 C528.05 2.01 525.06 2.01 522.06 2 C517.04 2 512.01 2.01 506.98 2.01 C501.16 2.02 495.34 2.01 489.52 2.01 C484.53 2 479.55 2 474.56 2.01 C471.57 2.01 468.59 2.01 465.61 2 C462.28 2 458.96 2.01 455.64 2.01 C454.64 2.01 453.65 2.01 452.62 2 C452.17 2.01 452.17 2.01 449.89 2.01 C449.11 2.01 448.32 2.01 447.51 2.01 C445.72 2.14 445.72 2.14 444.72 3.14 C444.39 22.28 444.06 41.42 443.72 61.14 C351.65 61.14 259.58 61.14 164.72 61.14 C163.59 55.52 163.59 55.52 164.72 52.14 C165.22 52.14 165.72 52.14 166.24 52.14 C196.04 52.03 225.83 51.92 255.63 51.81 C259.2 51.8 262.77 51.78 266.35 51.77 C267.06 51.77 267.77 51.76 268.5 51.76 C280.04 51.72 291.57 51.68 303.11 51.64 C314.94 51.6 326.77 51.55 338.59 51.5 C345.9 51.47 353.2 51.45 360.51 51.43 C365.51 51.41 370.51 51.39 375.51 51.37 C378.4 51.35 381.29 51.34 384.18 51.34 C387.31 51.33 390.44 51.31 393.56 51.3 C394.49 51.3 395.41 51.3 396.36 51.3 C397.19 51.29 398.02 51.28 398.88 51.28 C399.24 51.28 399.24 51.28 401.07 51.27 C402.72 51.14 402.72 51.14 403.72 50.14 C403.82 48.67 403.85 47.2 403.85 45.73 C403.85 44.79 403.85 43.85 403.86 42.89 C403.85 41.87 403.85 40.85 403.85 39.8 C403.85 38.76 403.85 37.72 403.85 36.65 C403.85 34.44 403.85 32.24 403.85 30.04 C403.84 26.66 403.85 23.27 403.85 19.89 C403.85 17.75 403.85 15.62 403.85 13.48 C403.85 12.97 403.85 12.97 403.86 10.39 C403.85 9.46 403.85 8.52 403.85 7.55 C403.85 6.72 403.85 5.89 403.84 5.04 C403.72 3.14 403.72 3.14 402.72 2.14 C401.19 2.04 399.65 2.01 398.12 2.01 C397.61 2.01 397.61 2.01 395.08 2.01 C393.97 2.01 392.86 2.01 391.71 2.01 C390.52 2.01 389.34 2.01 388.16 2.01 C384.89 2 381.62 2.01 378.35 2.01 C374.83 2.01 371.31 2.01 367.8 2.01 C360.9 2 354 2 347.1 2.01 C341.49 2.01 335.89 2.01 330.29 2.01 C329.49 2.01 328.69 2.01 327.87 2.01 C326.26 2.01 324.64 2.01 323.02 2.01 C307.84 2 292.66 2.01 277.48 2.01 C264.44 2.02 251.4 2.01 238.36 2.01 C223.23 2 208.11 2 192.98 2.01 C191.37 2.01 189.76 2.01 188.15 2.01 C187.75 2.01 187.75 2.01 185.75 2.01 C180.15 2.01 174.54 2.01 168.94 2 C162.12 2 155.3 2 148.48 2.01 C145 2.01 141.51 2.01 138.03 2.01 C134.85 2 131.66 2.01 128.48 2.01 C126.77 2.01 125.06 2.01 123.35 2.01 C122.35 2.01 121.35 2.01 120.32 2.01 C119.45 2.01 118.58 2.01 117.68 2.02 C115.72 2.14 115.72 2.14 114.72 3.14 C114.59 4.95 114.54 6.76 114.51 8.58 C114.5 9.14 114.49 9.71 114.48 10.29 C114.45 12.17 114.43 14.05 114.4 15.93 C114.38 17.22 114.36 18.52 114.34 19.82 C114.28 23.25 114.23 26.67 114.19 30.1 C114.14 33.59 114.08 37.08 114.02 40.57 C113.92 47.43 113.82 54.28 113.72 61.14 C110.75 61.14 107.78 61.14 104.72 61.14 C103.91 57.6 103.6 54.35 103.62 50.72 C103.62 49.67 103.63 48.61 103.63 47.52 C103.64 46.39 103.65 45.26 103.66 44.09 C103.66 42.91 103.66 41.74 103.67 40.56 C103.68 36.84 103.7 33.11 103.72 29.39 C103.74 25.06 103.76 20.73 103.77 16.41 C103.78 14.67 103.79 12.94 103.81 11.21 C103.81 10.16 103.81 9.12 103.82 8.04 C103.82 7.58 103.82 7.58 103.83 5.24 C103.72 3.14 103.72 3.14 102.72 2.14 C101.33 2.04 99.94 2.01 98.55 2 C97.65 1.99 96.75 1.99 95.82 1.98 C94.83 1.98 93.84 1.98 92.81 1.98 C91.77 1.97 90.73 1.97 89.66 1.96 C86.8 1.95 83.94 1.94 81.08 1.94 C79.29 1.94 77.5 1.93 75.72 1.93 C70.13 1.92 64.55 1.91 58.97 1.9 C52.51 1.9 46.06 1.88 39.6 1.85 C34.62 1.83 29.64 1.82 24.65 1.82 C21.67 1.82 18.69 1.81 15.71 1.79 C12.39 1.78 9.07 1.78 5.75 1.78 C5.26 1.78 5.26 1.78 2.75 1.76 C2.29 1.76 2.29 1.76 0.01 1.77 C-0.77 1.77 -1.56 1.77 -2.37 1.77 C-4.28 2.14 -4.28 2.14 -5.54 3.4 Z " fill="#0033FF" transform="translate(27.282455444335938,22.85955810546875)"/>
<path d="M0 0 C0.72 -0 1.44 -0 2.18 -0 C3 -0.01 3.83 -0.02 4.69 -0.02 C5.61 -0.02 6.52 -0.01 7.47 -0 C8.44 -0.01 9.42 -0.01 10.42 -0.02 C13.72 -0.03 17.02 -0.02 20.32 -0.01 C22.7 -0.01 25.08 -0.01 27.45 -0.02 C32.63 -0.03 37.82 -0.03 43 -0.02 C50.71 -0.01 58.42 -0.02 66.13 -0.03 C79.9 -0.04 93.66 -0.04 107.43 -0.03 C119.47 -0.02 131.52 -0.02 143.57 -0.03 C143.97 -0.03 143.97 -0.03 145.98 -0.03 C149.22 -0.03 152.46 -0.03 155.7 -0.03 C186.11 -0.04 216.52 -0.03 246.92 -0.01 C273.96 -0 300.99 -0 328.03 -0.02 C358.38 -0.03 388.72 -0.04 419.07 -0.03 C422.31 -0.03 425.54 -0.03 428.77 -0.03 C429.57 -0.03 430.37 -0.03 431.19 -0.03 C443.23 -0.02 455.27 -0.03 467.31 -0.03 C480.99 -0.04 494.68 -0.04 508.37 -0.02 C516.04 -0.01 523.7 -0.01 531.37 -0.03 C536.48 -0.03 541.6 -0.03 546.71 -0.02 C549.63 -0.01 552.55 -0.01 555.47 -0.02 C558.6 -0.03 561.74 -0.02 564.88 -0 C565.79 -0.01 566.71 -0.02 567.65 -0.02 C568.07 -0.02 568.07 -0.02 570.17 -0 C570.89 -0 571.61 -0 572.35 0 C574.83 0.49 575.72 1.37 577.24 3.38 C577.53 5.9 577.64 8.18 577.62 10.7 C577.62 11.08 577.62 11.08 577.63 12.98 C577.64 15.51 577.63 18.03 577.62 20.56 C577.63 22.37 577.63 24.18 577.64 25.98 C577.65 30.9 577.65 35.82 577.64 40.74 C577.63 45.88 577.64 51.01 577.64 56.15 C577.65 64.79 577.64 73.42 577.63 82.05 C577.61 92.04 577.62 102.03 577.63 112.01 C577.65 120.58 577.65 129.15 577.64 137.71 C577.64 142.83 577.64 147.95 577.65 153.07 C577.65 157.89 577.65 162.7 577.63 167.51 C577.63 169.28 577.63 171.05 577.63 172.82 C577.64 175.23 577.63 177.64 577.62 180.05 C577.62 180.4 577.62 180.4 577.64 182.19 C577.58 186.92 577.58 186.92 575.97 189.05 C573.85 190.67 572.81 190.75 570.17 190.75 C569.76 190.76 569.76 190.76 567.65 190.77 C566.74 190.77 565.82 190.76 564.88 190.75 C563.9 190.76 562.93 190.76 561.92 190.77 C558.62 190.78 555.32 190.77 552.02 190.76 C549.65 190.76 547.27 190.76 544.89 190.77 C539.71 190.78 534.52 190.78 529.34 190.77 C521.63 190.76 513.92 190.77 506.21 190.78 C492.44 190.79 478.68 190.79 464.91 190.78 C452.87 190.78 440.82 190.77 428.77 190.78 C427.98 190.78 427.18 190.78 426.35 190.78 C423.12 190.78 419.88 190.78 416.64 190.78 C386.23 190.79 355.83 190.78 325.42 190.77 C298.39 190.75 271.35 190.75 244.32 190.77 C213.97 190.78 183.62 190.79 153.27 190.78 C150.03 190.78 146.8 190.78 143.57 190.78 C142.77 190.78 141.97 190.78 141.15 190.78 C129.11 190.77 117.07 190.78 105.03 190.78 C91.34 190.79 77.66 190.79 63.97 190.77 C56.3 190.77 48.64 190.77 40.97 190.78 C35.86 190.78 30.74 190.78 25.63 190.77 C22.71 190.76 19.79 190.76 16.88 190.77 C13.74 190.78 10.61 190.77 7.47 190.75 C6.55 190.76 5.63 190.77 4.69 190.77 C3.86 190.77 3.03 190.76 2.18 190.75 C1.46 190.75 0.74 190.75 0 190.75 C-1.76 190.38 -1.76 190.38 -2.99 189.05 C-4.31 186.19 -4.04 183.14 -4.02 180.05 C-4.02 179.3 -4.02 178.55 -4.03 177.77 C-4.03 175.24 -4.03 172.72 -4.02 170.19 C-4.02 168.38 -4.03 166.58 -4.03 164.77 C-4.04 159.85 -4.04 154.93 -4.03 150.02 C-4.03 144.88 -4.03 139.74 -4.03 134.6 C-4.04 125.96 -4.03 117.33 -4.02 108.7 C-4.01 98.71 -4.02 88.73 -4.03 78.74 C-4.04 70.17 -4.04 61.6 -4.03 53.04 C-4.03 47.92 -4.03 42.8 -4.04 37.68 C-4.04 32.86 -4.04 28.05 -4.03 23.24 C-4.02 21.47 -4.02 19.7 -4.03 17.93 C-4.03 15.52 -4.03 13.11 -4.02 10.7 C-4.02 10 -4.03 9.29 -4.03 8.56 C-3.97 0.84 -3.97 0.84 0 0 Z M-1.76 3.38 C-1.86 5.75 -1.9 8.1 -1.89 10.47 C-1.89 11.23 -1.89 11.98 -1.89 12.75 C-1.9 15.29 -1.9 17.83 -1.89 20.36 C-1.89 22.18 -1.9 23.99 -1.9 25.8 C-1.9 30.73 -1.9 35.67 -1.9 40.6 C-1.89 45.75 -1.9 50.9 -1.9 56.05 C-1.9 64.7 -1.9 73.36 -1.89 82.01 C-1.89 92.03 -1.89 102.05 -1.9 112.06 C-1.9 120.65 -1.9 129.23 -1.9 137.82 C-1.9 142.95 -1.9 148.09 -1.9 153.22 C-1.9 158.05 -1.9 162.88 -1.89 167.7 C-1.89 169.48 -1.89 171.26 -1.9 173.03 C-1.9 175.45 -1.9 177.86 -1.89 180.28 C-1.89 180.99 -1.89 181.7 -1.9 182.44 C-1.88 187.26 -1.88 187.26 -0.76 188.38 C0.87 188.5 0.87 188.5 3.05 188.5 C3.87 188.5 4.7 188.51 5.55 188.51 C6.47 188.51 7.39 188.5 8.34 188.5 C9.31 188.5 10.28 188.5 11.28 188.51 C14.58 188.51 17.88 188.51 21.18 188.5 C23.55 188.5 25.92 188.51 28.3 188.51 C33.47 188.51 38.65 188.51 43.83 188.51 C51.54 188.5 59.24 188.51 66.94 188.51 C80.69 188.51 94.44 188.51 108.19 188.51 C120.23 188.51 132.26 188.51 144.3 188.51 C144.7 188.51 144.7 188.51 146.71 188.51 C149.95 188.51 153.18 188.51 156.42 188.51 C186.79 188.51 217.16 188.51 247.53 188.51 C274.53 188.5 301.54 188.5 328.55 188.51 C358.86 188.51 389.18 188.51 419.49 188.51 C422.72 188.51 425.95 188.51 429.18 188.51 C429.97 188.51 430.77 188.51 431.59 188.51 C443.62 188.51 455.64 188.51 467.67 188.51 C481.35 188.51 495.02 188.51 508.69 188.51 C516.35 188.51 524.01 188.51 531.67 188.51 C536.78 188.51 541.89 188.51 546.99 188.51 C549.91 188.5 552.83 188.5 555.74 188.51 C558.87 188.51 562.01 188.51 565.14 188.5 C566.06 188.5 566.98 188.51 567.92 188.51 C568.75 188.51 569.58 188.5 570.43 188.5 C570.79 188.5 570.79 188.5 572.6 188.5 C574.24 188.38 574.24 188.38 575.24 187.38 C575.34 185 575.37 182.65 575.36 180.28 C575.37 179.53 575.37 178.77 575.37 178 C575.37 175.46 575.37 172.92 575.37 170.39 C575.37 168.58 575.37 166.76 575.37 164.95 C575.38 160.02 575.37 155.09 575.37 150.15 C575.37 145 575.37 139.85 575.37 134.7 C575.37 126.05 575.37 117.39 575.37 108.74 C575.36 98.72 575.36 88.7 575.37 78.69 C575.37 70.1 575.37 61.52 575.37 52.93 C575.37 47.8 575.37 42.66 575.37 37.53 C575.38 32.7 575.37 27.87 575.37 23.05 C575.37 21.27 575.37 19.49 575.37 17.72 C575.37 15.3 575.37 12.89 575.36 10.47 C575.37 9.76 575.37 9.05 575.37 8.32 C575.35 3.49 575.35 3.49 574.24 2.38 C572.6 2.25 572.6 2.25 570.43 2.25 C569.6 2.25 568.77 2.25 567.92 2.24 C567 2.24 566.08 2.25 565.14 2.25 C564.16 2.25 563.19 2.25 562.19 2.25 C558.89 2.24 555.59 2.25 552.29 2.25 C549.92 2.25 547.55 2.25 545.18 2.24 C540 2.24 534.82 2.24 529.64 2.24 C521.94 2.25 514.24 2.24 506.54 2.24 C492.78 2.24 479.03 2.24 465.28 2.24 C453.24 2.24 441.21 2.24 429.18 2.24 C428.38 2.24 427.58 2.24 426.76 2.24 C423.53 2.24 420.29 2.24 417.06 2.24 C386.69 2.24 356.32 2.24 325.95 2.25 C298.94 2.25 271.93 2.25 244.92 2.25 C214.61 2.24 184.3 2.24 153.98 2.24 C150.76 2.24 147.53 2.24 144.3 2.24 C143.5 2.24 142.71 2.24 141.89 2.24 C129.86 2.24 117.83 2.24 105.8 2.24 C92.13 2.24 78.46 2.24 64.78 2.24 C57.12 2.25 49.46 2.25 41.8 2.24 C36.69 2.24 31.59 2.24 26.48 2.25 C23.56 2.25 20.65 2.25 17.73 2.24 C14.6 2.24 11.47 2.24 8.34 2.25 C7.42 2.25 6.5 2.24 5.55 2.24 C4.72 2.24 3.9 2.25 3.05 2.25 C2.69 2.25 2.69 2.25 0.87 2.25 C-0.76 2.38 -0.76 2.38 -1.76 3.38 Z " fill="#0033FF" transform="translate(14.763196464627981,13.62456849962473)"/>
<path d="M0 0 C0.76 -0 1.51 -0 2.29 -0 C4.84 -0.01 7.39 -0.01 9.94 -0 C11.76 -0 13.58 -0.01 15.4 -0.01 C20.36 -0.01 25.31 -0.01 30.27 -0.01 C35.45 -0 40.62 -0.01 45.8 -0.01 C54.49 -0.01 63.19 -0.01 71.88 -0 C81.95 0 92.01 0 102.08 -0.01 C110.7 -0.01 119.33 -0.01 127.96 -0.01 C133.12 -0.01 138.28 -0.01 143.44 -0.01 C148.29 -0.01 153.13 -0.01 157.98 -0 C159.77 -0 161.55 -0 163.34 -0.01 C165.76 -0.01 168.19 -0.01 170.61 0 C171.33 -0 172.04 -0 172.78 -0.01 C177.63 0.01 177.63 0.01 178.74 1.13 C178.87 3.63 178.87 3.63 178.74 6.13 C177.07 7.8 175.02 7.26 172.79 7.27 C172.43 7.27 172.43 7.27 170.62 7.27 C170.24 7.27 170.24 7.27 168.33 7.28 C165.79 7.29 163.24 7.29 160.69 7.29 C158.88 7.29 157.06 7.3 155.24 7.3 C150.29 7.32 145.34 7.32 140.38 7.33 C137.29 7.33 134.2 7.33 131.11 7.34 C121.45 7.35 111.79 7.36 102.13 7.37 C90.96 7.37 79.79 7.39 68.62 7.42 C60 7.44 51.38 7.45 42.76 7.45 C37.6 7.45 32.45 7.46 27.29 7.47 C22.44 7.49 17.6 7.49 12.75 7.48 C10.97 7.48 9.18 7.49 7.4 7.5 C4.97 7.51 2.55 7.5 0.12 7.49 C-0.23 7.5 -0.23 7.5 -2.03 7.52 C-5.02 7.49 -6.82 7.47 -9.22 5.6 C-9.56 5.12 -9.9 4.63 -10.26 4.13 C-9.93 3.14 -9.6 2.15 -9.26 1.13 C-6.28 -0.36 -3.26 -0.01 0 0 Z " fill="#000000" transform="translate(351.25709533691406,135.87301635742188)"/>
<path d="M0 0 C0.76 -0 1.52 -0.01 2.3 -0.01 C4.86 -0.02 7.41 -0.02 9.97 -0.02 C11.8 -0.03 13.63 -0.03 15.46 -0.04 C20.43 -0.05 25.41 -0.06 30.38 -0.06 C33.49 -0.06 36.59 -0.07 39.7 -0.07 C49.4 -0.08 59.11 -0.09 68.82 -0.1 C80.04 -0.1 91.26 -0.12 102.48 -0.15 C111.15 -0.17 119.81 -0.18 128.48 -0.18 C133.66 -0.18 138.84 -0.19 144.02 -0.21 C148.89 -0.22 153.76 -0.23 158.62 -0.22 C160.42 -0.22 162.21 -0.22 164 -0.23 C166.43 -0.24 168.87 -0.24 171.31 -0.23 C171.67 -0.23 171.67 -0.23 173.47 -0.25 C176.39 -0.22 178.27 -0.18 180.67 1.55 C181.98 3.54 181.95 4.44 181.53 6.77 C181.26 7.88 180.99 8.99 180.72 10.14 C177.74 11.63 174.7 11.28 171.44 11.28 C170.68 11.28 169.92 11.29 169.14 11.29 C166.58 11.3 164.02 11.3 161.46 11.3 C159.64 11.31 157.81 11.31 155.98 11.32 C151.01 11.33 146.03 11.34 141.06 11.34 C137.95 11.34 134.84 11.35 131.74 11.35 C122.03 11.37 112.32 11.38 102.62 11.38 C91.4 11.38 80.17 11.4 68.95 11.43 C60.29 11.45 51.62 11.46 42.96 11.46 C37.78 11.46 32.6 11.47 27.42 11.49 C22.55 11.5 17.68 11.51 12.81 11.5 C11.02 11.5 9.23 11.5 7.44 11.51 C5 11.52 2.57 11.52 0.13 11.51 C-0.23 11.51 -0.23 11.51 -2.04 11.53 C-4.88 11.5 -6.81 11.47 -9.18 9.8 C-10.28 8.14 -10.28 8.14 -11.28 5.14 C-9.08 -0.63 -5.54 -0.01 0 0 Z M-8.24 3.66 C-8.59 4.15 -8.93 4.64 -9.28 5.14 C-8.95 6.13 -8.62 7.12 -8.28 8.14 C-5.31 9.63 -2.28 9.28 0.98 9.27 C1.35 9.27 1.35 9.27 3.27 9.27 C5.82 9.28 8.36 9.27 10.91 9.27 C12.73 9.27 14.55 9.27 16.38 9.28 C21.33 9.28 26.29 9.28 31.25 9.27 C36.42 9.27 41.6 9.27 46.77 9.28 C55.47 9.28 64.16 9.28 72.85 9.27 C82.92 9.27 92.99 9.27 103.05 9.27 C111.68 9.28 120.31 9.28 128.93 9.28 C134.09 9.27 139.25 9.27 144.41 9.28 C149.26 9.28 154.11 9.28 158.96 9.27 C160.74 9.27 162.53 9.27 164.31 9.27 C166.74 9.28 169.16 9.27 171.59 9.27 C171.95 9.27 171.95 9.27 173.76 9.27 C178.6 9.25 178.6 9.25 179.72 8.14 C179.84 5.64 179.84 5.64 179.72 3.14 C178.04 1.47 176 2.01 173.76 2 C173.05 2 172.33 2 171.6 2 C170.84 2 170.09 1.99 169.31 1.99 C166.76 1.98 164.22 1.98 161.67 1.98 C159.85 1.97 158.03 1.97 156.22 1.96 C151.26 1.95 146.31 1.94 141.36 1.94 C138.27 1.94 135.18 1.93 132.09 1.93 C122.43 1.92 112.77 1.91 103.11 1.9 C91.94 1.9 80.77 1.88 69.6 1.85 C60.97 1.83 52.35 1.82 43.73 1.82 C38.58 1.82 33.42 1.81 28.27 1.79 C23.42 1.78 18.57 1.77 13.72 1.78 C11.94 1.78 10.16 1.78 8.38 1.77 C5.95 1.76 3.52 1.76 1.1 1.77 C0.39 1.76 -0.33 1.76 -1.06 1.75 C-4.04 1.78 -5.84 1.8 -8.24 3.66 Z " fill="#0033FF" transform="translate(350.28160095214844,133.85955810546875)"/>
<path d="M0 0 C0.51 1.27 1 2.54 1.5 3.81 C1.78 4.52 2.06 5.23 2.34 5.96 C3 8 3 8 3 11 C3.66 11 4.32 11 5 11 C5.14 9.93 5.29 8.86 5.44 7.75 C5.81 5.11 6.28 2.57 7 0 C11.43 0.51 13.85 1.85 17 5 C20.02 9.47 20.41 13.59 19.57 18.86 C18.41 23.21 16.29 25.96 12.75 28.81 C7.89 30.91 3.37 31.81 -1.69 29.88 C-5.98 27.72 -8.85 24.87 -11.38 20.75 C-12.56 15.54 -12.08 10.23 -9.25 5.62 C-6.67 2.62 -4.15 0 0 0 Z " fill="#FFFF3D" transform="translate(103,35)"/>
<path d="M0 0 C1.32 6.36 1.32 6.36 0 9 C-3.16 10.58 -5.58 9.71 -9 9 C-10.12 6.75 -10.12 6.75 -11 4 C-10.25 1.75 -10.25 1.75 -9 0 C-5.9 -1.55 -3.38 -0.56 0 0 Z " fill="#0033FF" transform="translate(290,135)"/>
<path d="M0 0 C1.32 6.36 1.32 6.36 0 9 C-3.16 10.58 -5.58 9.71 -9 9 C-10.12 6.75 -10.12 6.75 -11 4 C-10.25 1.75 -10.25 1.75 -9 0 C-5.9 -1.55 -3.38 -0.56 0 0 Z " fill="#0033FF" transform="translate(531,75)"/>
<path d="M0 0 C2.31 0.33 4.62 0.66 7 1 C8.33 7.43 8.33 7.43 6.88 9.94 C4.46 11.3 2.73 11.22 0 11 C-2.38 7.21 -2.38 7.21 -3 5 C-1.69 2.12 -1.69 2.12 0 0 Z " fill="#0033FF" transform="translate(73,74)"/>
<path d="M0 0 C2.44 0.25 2.44 0.25 3.44 1.25 C3.56 3.75 3.56 3.75 3.44 6.25 C2.44 7.25 2.44 7.25 -0.12 7.31 C-0.53 7.3 -0.53 7.3 -2.56 7.25 C-3.22 5.93 -3.88 4.61 -4.56 3.25 C-3.36 0.63 -2.95 0.29 0 0 Z " fill="#000000" transform="translate(285.5625,135.75)"/>
<path d="M0 0 C2.44 0.25 2.44 0.25 3.44 1.25 C3.56 3.75 3.56 3.75 3.44 6.25 C2.44 7.25 2.44 7.25 -0.12 7.31 C-0.53 7.3 -0.53 7.3 -2.56 7.25 C-3.22 5.93 -3.88 4.61 -4.56 3.25 C-3.36 0.63 -2.95 0.29 0 0 Z " fill="#000000" transform="translate(526.5625,75.75)"/>
<path d="M0 0 C0.6 0.23 1.2 0.45 1.81 0.69 C2.5 2.5 2.5 2.5 2.81 4.69 C1.62 6.5 1.62 6.5 -0.19 7.69 C-2.38 7.38 -2.38 7.38 -4.19 6.69 C-4.88 4.88 -4.88 4.88 -5.19 2.69 C-3.58 0.24 -2.95 -0.42 0 0 Z " fill="#FFFFFF" transform="translate(438.1875,166.3125)"/>
<path d="M0 0 C0.6 0.23 1.2 0.45 1.81 0.69 C2.5 2.5 2.5 2.5 2.81 4.69 C1.62 6.5 1.62 6.5 -0.19 7.69 C-2.38 7.38 -2.38 7.38 -4.19 6.69 C-4.88 4.88 -4.88 4.88 -5.19 2.69 C-3.58 0.24 -2.95 -0.42 0 0 Z " fill="#FFFFFF" transform="translate(408.1875,166.3125)"/>
<path d="M0 0 C0.6 0.23 1.2 0.45 1.81 0.69 C2.5 2.5 2.5 2.5 2.81 4.69 C1.62 6.5 1.62 6.5 -0.19 7.69 C-2.38 7.38 -2.38 7.38 -4.19 6.69 C-4.88 4.88 -4.88 4.88 -5.19 2.69 C-3.58 0.24 -2.95 -0.42 0 0 Z " fill="#FFFFFF" transform="translate(378.1875,166.3125)"/>
<path d="M0 0 C0.6 0.23 1.2 0.45 1.81 0.69 C2.5 2.5 2.5 2.5 2.81 4.69 C1.62 6.5 1.62 6.5 -0.19 7.69 C-2.38 7.38 -2.38 7.38 -4.19 6.69 C-4.88 4.88 -4.88 4.88 -5.19 2.69 C-3.58 0.24 -2.95 -0.42 0 0 Z " fill="#FFFFFF" transform="translate(348.1875,166.3125)"/>
<path d="M0 0 C0.6 0.23 1.2 0.45 1.81 0.69 C2.5 2.5 2.5 2.5 2.81 4.69 C1.62 6.5 1.62 6.5 -0.19 7.69 C-2.38 7.38 -2.38 7.38 -4.19 6.69 C-4.88 4.88 -4.88 4.88 -5.19 2.69 C-3.58 0.24 -2.95 -0.42 0 0 Z " fill="#FFFFFF" transform="translate(318.1875,166.3125)"/>
<path d="M0 0 C0.6 0.23 1.2 0.45 1.81 0.69 C2.5 2.5 2.5 2.5 2.81 4.69 C1.62 6.5 1.62 6.5 -0.19 7.69 C-2.38 7.38 -2.38 7.38 -4.19 6.69 C-4.88 4.88 -4.88 4.88 -5.19 2.69 C-3.58 0.24 -2.95 -0.42 0 0 Z " fill="#FFFFFF" transform="translate(288.1875,166.3125)"/>
<path d="M0 0 C0.6 0.23 1.2 0.45 1.81 0.69 C2.5 2.5 2.5 2.5 2.81 4.69 C1.62 6.5 1.62 6.5 -0.19 7.69 C-2.38 7.38 -2.38 7.38 -4.19 6.69 C-4.88 4.88 -4.88 4.88 -5.19 2.69 C-3.58 0.24 -2.95 -0.42 0 0 Z " fill="#FFFFFF" transform="translate(258.1875,166.3125)"/>
<path d="M0 0 C0.6 0.23 1.2 0.45 1.81 0.69 C2.5 2.5 2.5 2.5 2.81 4.69 C1.62 6.5 1.62 6.5 -0.19 7.69 C-2.38 7.38 -2.38 7.38 -4.19 6.69 C-4.88 4.88 -4.88 4.88 -5.19 2.69 C-3.58 0.24 -2.95 -0.42 0 0 Z " fill="#FFFFFF" transform="translate(318.1875,136.3125)"/>
<path d="M0 0 C0.6 0.23 1.2 0.45 1.81 0.69 C2.5 2.5 2.5 2.5 2.81 4.69 C1.62 6.5 1.62 6.5 -0.19 7.69 C-2.38 7.38 -2.38 7.38 -4.19 6.69 C-4.88 4.88 -4.88 4.88 -5.19 2.69 C-3.58 0.24 -2.95 -0.42 0 0 Z " fill="#FFFFFF" transform="translate(258.1875,136.3125)"/>
<path d="M0 0 C0.6 0.23 1.2 0.45 1.81 0.69 C2.5 2.5 2.5 2.5 2.81 4.69 C1.62 6.5 1.62 6.5 -0.19 7.69 C-2.38 7.38 -2.38 7.38 -4.19 6.69 C-4.88 4.88 -4.88 4.88 -5.19 2.69 C-3.58 0.24 -2.95 -0.42 0 0 Z " fill="#FFFFFF" transform="translate(558.1875,76.3125)"/>
<path d="M0 0 C0.6 0.23 1.2 0.45 1.81 0.69 C2.5 2.5 2.5 2.5 2.81 4.69 C1.62 6.5 1.62 6.5 -0.19 7.69 C-2.38 7.38 -2.38 7.38 -4.19 6.69 C-4.88 4.88 -4.88 4.88 -5.19 2.69 C-3.58 0.24 -2.95 -0.42 0 0 Z " fill="#FFFFFF" transform="translate(498.1875,76.3125)"/>
<path d="M0 0 C0.6 0.23 1.2 0.45 1.81 0.69 C2.5 2.5 2.5 2.5 2.81 4.69 C1.62 6.5 1.62 6.5 -0.19 7.69 C-2.38 7.38 -2.38 7.38 -4.19 6.69 C-4.88 4.88 -4.88 4.88 -5.19 2.69 C-3.58 0.24 -2.95 -0.42 0 0 Z " fill="#FFFFFF" transform="translate(168.1875,76.3125)"/>
<path d="M0 0 C0.6 0.23 1.2 0.45 1.81 0.69 C2.5 2.5 2.5 2.5 2.81 4.69 C1.62 6.5 1.62 6.5 -0.19 7.69 C-2.38 7.38 -2.38 7.38 -4.19 6.69 C-4.88 4.88 -4.88 4.88 -5.19 2.69 C-3.58 0.24 -2.95 -0.42 0 0 Z " fill="#FFFFFF" transform="translate(558.1875,46.3125)"/>
<path d="M0 0 C0.6 0.23 1.2 0.45 1.81 0.69 C2.5 2.5 2.5 2.5 2.81 4.69 C1.62 6.5 1.62 6.5 -0.19 7.69 C-2.38 7.38 -2.38 7.38 -4.19 6.69 C-4.88 4.88 -4.88 4.88 -5.19 2.69 C-3.58 0.24 -2.95 -0.42 0 0 Z " fill="#FFFFFF" transform="translate(528.1875,46.3125)"/>
<path d="M0 0 C0.6 0.23 1.2 0.45 1.81 0.69 C2.5 2.5 2.5 2.5 2.81 4.69 C1.62 6.5 1.62 6.5 -0.19 7.69 C-2.38 7.38 -2.38 7.38 -4.19 6.69 C-4.88 4.88 -4.88 4.88 -5.19 2.69 C-3.58 0.24 -2.95 -0.42 0 0 Z " fill="#FFFFFF" transform="translate(498.1875,46.3125)"/>
<path d="M0 0 C0.6 0.23 1.2 0.45 1.81 0.69 C2.5 2.5 2.5 2.5 2.81 4.69 C1.62 6.5 1.62 6.5 -0.19 7.69 C-2.38 7.38 -2.38 7.38 -4.19 6.69 C-4.88 4.88 -4.88 4.88 -5.19 2.69 C-3.58 0.24 -2.95 -0.42 0 0 Z " fill="#FFFFFF" transform="translate(408.1875,46.3125)"/>
<path d="M0 0 C0.6 0.23 1.2 0.45 1.81 0.69 C2.5 2.5 2.5 2.5 2.81 4.69 C1.62 6.5 1.62 6.5 -0.19 7.69 C-2.38 7.38 -2.38 7.38 -4.19 6.69 C-4.88 4.88 -4.88 4.88 -5.19 2.69 C-3.58 0.24 -2.95 -0.42 0 0 Z " fill="#FFFFFF" transform="translate(378.1875,46.3125)"/>
<path d="M0 0 C0.6 0.23 1.2 0.45 1.81 0.69 C2.5 2.5 2.5 2.5 2.81 4.69 C1.62 6.5 1.62 6.5 -0.19 7.69 C-2.38 7.38 -2.38 7.38 -4.19 6.69 C-4.88 4.88 -4.88 4.88 -5.19 2.69 C-3.58 0.24 -2.95 -0.42 0 0 Z " fill="#FFFFFF" transform="translate(348.1875,46.3125)"/>
<path d="M0 0 C0.6 0.23 1.2 0.45 1.81 0.69 C2.5 2.5 2.5 2.5 2.81 4.69 C1.62 6.5 1.62 6.5 -0.19 7.69 C-2.38 7.38 -2.38 7.38 -4.19 6.69 C-4.88 4.88 -4.88 4.88 -5.19 2.69 C-3.58 0.24 -2.95 -0.42 0 0 Z " fill="#FFFFFF" transform="translate(318.1875,46.3125)"/>
<path d="M0 0 C0.6 0.23 1.2 0.45 1.81 0.69 C2.5 2.5 2.5 2.5 2.81 4.69 C1.62 6.5 1.62 6.5 -0.19 7.69 C-2.38 7.38 -2.38 7.38 -4.19 6.69 C-4.88 4.88 -4.88 4.88 -5.19 2.69 C-3.58 0.24 -2.95 -0.42 0 0 Z " fill="#FFFFFF" transform="translate(288.1875,46.3125)"/>
<path d="M0 0 C0.6 0.23 1.2 0.45 1.81 0.69 C2.5 2.5 2.5 2.5 2.81 4.69 C1.62 6.5 1.62 6.5 -0.19 7.69 C-2.38 7.38 -2.38 7.38 -4.19 6.69 C-4.88 4.88 -4.88 4.88 -5.19 2.69 C-3.58 0.24 -2.95 -0.42 0 0 Z " fill="#FFFFFF" transform="translate(258.1875,46.3125)"/>
<path d="M0 0 C0.6 0.23 1.2 0.45 1.81 0.69 C2.5 2.5 2.5 2.5 2.81 4.69 C1.62 6.5 1.62 6.5 -0.19 7.69 C-2.38 7.38 -2.38 7.38 -4.19 6.69 C-4.88 4.88 -4.88 4.88 -5.19 2.69 C-3.58 0.24 -2.95 -0.42 0 0 Z " fill="#FFFFFF" transform="translate(228.1875,46.3125)"/>
<path d="M0 0 C0.6 0.23 1.2 0.45 1.81 0.69 C2.5 2.5 2.5 2.5 2.81 4.69 C1.62 6.5 1.62 6.5 -0.19 7.69 C-2.38 7.38 -2.38 7.38 -4.19 6.69 C-4.88 4.88 -4.88 4.88 -5.19 2.69 C-3.58 0.24 -2.95 -0.42 0 0 Z " fill="#FFFFFF" transform="translate(198.1875,46.3125)"/>
<path d="M0 0 C0.6 0.23 1.2 0.45 1.81 0.69 C2.5 2.5 2.5 2.5 2.81 4.69 C1.62 6.5 1.62 6.5 -0.19 7.69 C-2.38 7.38 -2.38 7.38 -4.19 6.69 C-4.88 4.88 -4.88 4.88 -5.19 2.69 C-3.58 0.24 -2.95 -0.42 0 0 Z " fill="#FFFFFF" transform="translate(168.1875,46.3125)"/>
<path d="M0 0 C1.65 0.33 3.3 0.66 5 1 C5 2.65 5 4.3 5 6 C3.35 6.33 1.7 6.66 0 7 C-0.66 5.68 -1.32 4.36 -2 3 C-1.34 2.01 -0.68 1.02 0 0 Z " fill="#000000" transform="translate(74,76)"/>
</svg>
