<svg xmlns="http://www.w3.org/2000/svg" viewBox="0 0 430 89" role="img" data-redrawn="manual" aria-labelledby="title desc"><title id="title">T ⟂⟂ D | R,S</title><desc id="desc">T ⟂⟂ D | R,S</desc><g xmlns="http://www.w3.org/2000/svg" shape-rendering="geometricPrecision" data-vector-method="rgba-horizontal-runs"><path fill="#ffffff" d="M0 0h430v1H0zM0 1h430v1H0zM0 2h250v1H0zM253 2h177v1H253zM0 3h249v1H0zM253 3h177v1H253zM0 4h249v1H0zM253 4h177v1H253zM0 5h249v1H0zM253 5h177v1H253zM0 6h249v1H0zM253 6h148v1H253zM413 6h11v1H413zM427 6h3v1H427zM0 7h103v1H0zM106 7h17v1H106zM126 7h57v1H126zM216 7h33v1H216zM253 7h30v1H253zM312 7h87v1H312zM416 7h8v1H416zM427 7h3v1H427zM0 8h9v1H0zM63 8h39v1H63zM106 8h16v1H106zM126 8h56v1H126zM221 8h28v1H221zM253 8h29v1H253zM318 8h79v1H318zM404 8h7v1H404zM417 8h6v1H417zM426 8h4v1H426zM0 9h9v1H0zM63 9h39v1H63zM106 9h16v1H106zM126 9h56v1H126zM223 9h26v1H223zM253 9h29v1H253zM320 9h75v1H320zM401 9h13v1H401zM418 9h4v1H418zM426 9h4v1H426zM0 10h8v1H0zM63 10h39v1H63zM106 10h16v1H106zM126 10h62v1H126zM198 10h16v1H198zM225 10h24v1H225zM253 10h35v1H253zM298 10h14v1H298zM322 10h72v1H322zM399 10h16v1H399zM419 10h2v1H419zM426 10h4v1H426zM0 11h8v1H0zM16 11h15v1H16zM39 11h16v1H39zM63 11h39v1H63zM106 11h16v1H106zM126 11h63v1H126zM197 11h21v1H197zM226 11h23v1H226zM253 11h36v1H253zM297 11h19v1H297zM324 11h68v1H324zM397 11h20v1H397zM426 11h4v1H426zM0 12h8v1H0zM13 12h18v1H13zM39 12h18v1H39zM63 12h39v1H63zM106 12h16v1H106zM126 12h63v1H126zM196 12h24v1H196zM228 12h21v1H228zM253 12h36v1H253zM296 12h22v1H296zM325 12h66v1H325zM396 12h21v1H396zM425 12h5v1H425zM0 13h7v1H0zM12 13h19v1H12zM39 13h19v1H39zM62 13h40v1H62zM106 13h16v1H106zM126 13h63v1H126zM196 13h25v1H196zM229 13h20v1H229zM253 13h36v1H253zM296 13h23v1H296zM326 13h64v1H326zM395 13h23v1H395zM425 13h5v1H425zM0 14h7v1H0zM11 14h20v1H11zM38 14h20v1H38zM62 14h40v1H62zM106 14h16v1H106zM126 14h63v1H126zM196 14h26v1H196zM230 14h19v1H230zM253 14h36v1H253zM296 14h24v1H296zM327 14h63v1H327zM394 14h25v1H394zM425 14h5v1H425zM0 15h6v1H0zM10 15h21v1H10zM38 15h21v1H38zM62 15h40v1H62zM106 15h16v1H106zM126 15h62v1H126zM196 15h27v1H196zM230 15h19v1H230zM253 15h35v1H253zM296 15h24v1H296zM328 15h61v1H328zM394 15h25v1H394zM425 15h5v1H425zM0 16h6v1H0zM10 16h20v1H10zM38 16h21v1H38zM62 16h40v1H62zM106 16h16v1H106zM126 16h62v1H126zM195 16h29v1H195zM231 16h18v1H231zM253 16h35v1H253zM296 16h24v1H296zM328 16h60v1H328zM393 16h26v1H393zM425 16h5v1H425zM0 17h6v1H0zM9 17h21v1H9zM38 17h21v1H38zM62 17h40v1H62zM106 17h16v1H106zM126 17h62v1H126zM195 17h30v1H195zM232 17h17v1H232zM253 17h35v1H253zM295 17h26v1H295zM328 17h60v1H328zM393 17h27v1H393zM424 17h6v1H424zM0 18h5v1H0zM9 18h21v1H9zM37 18h22v1H37zM62 18h40v1H62zM106 18h16v1H106zM126 18h62v1H126zM195 18h30v1H195zM232 18h17v1H232zM253 18h35v1H253zM295 18h26v1H295zM329 18h58v1H329zM392 18h28v1H392zM424 18h6v1H424zM0 19h5v1H0zM8 19h22v1H8zM37 19h22v1H37zM62 19h40v1H62zM106 19h16v1H106zM126 19h61v1H126zM195 19h31v1H195zM233 19h16v1H233zM253 19h34v1H253zM295 19h26v1H295zM329 19h58v1H329zM392 19h28v1H392zM424 19h6v1H424zM0 20h5v1H0zM8 20h21v1H8zM37 20h22v1H37zM61 20h41v1H61zM106 20h16v1H106zM126 20h61v1H126zM194 20h32v1H194zM233 20h16v1H233zM253 20h34v1H253zM295 20h26v1H295zM329 20h57v1H329zM392 20h28v1H392zM423 20h7v1H423zM0 21h4v1H0zM7 21h22v1H7zM37 21h22v1H37zM61 21h41v1H61zM106 21h16v1H106zM126 21h61v1H126zM194 21h32v1H194zM233 21h16v1H233zM253 21h34v1H253zM294 21h26v1H294zM329 21h57v1H329zM392 21h28v1H392zM423 21h7v1H423zM0 22h4v1H0zM7 22h22v1H7zM36 22h22v1H36zM61 22h41v1H61zM106 22h16v1H106zM126 22h61v1H126zM194 22h33v1H194zM234 22h15v1H234zM253 22h34v1H253zM294 22h26v1H294zM329 22h57v1H329zM392 22h28v1H392zM423 22h7v1H423zM0 23h4v1H0zM6 23h23v1H6zM36 23h22v1H36zM61 23h41v1H61zM106 23h16v1H106zM126 23h60v1H126zM194 23h33v1H194zM234 23h15v1H234zM253 23h33v1H253zM294 23h26v1H294zM328 23h58v1H328zM392 23h28v1H392zM423 23h7v1H423zM0 24h3v1H0zM6 24h22v1H6zM36 24h22v1H36zM61 24h41v1H61zM106 24h16v1H106zM126 24h60v1H126zM193 24h34v1H193zM234 24h15v1H234zM253 24h33v1H253zM293 24h27v1H293zM328 24h58v1H328zM392 24h28v1H392zM422 24h8v1H422zM0 25h3v1H0zM6 25h22v1H6zM36 25h22v1H36zM61 25h41v1H61zM106 25h16v1H106zM126 25h60v1H126zM193 25h34v1H193zM234 25h15v1H234zM253 25h33v1H253zM293 25h26v1H293zM327 25h59v1H327zM392 25h28v1H392zM422 25h8v1H422zM0 26h3v1H0zM5 26h23v1H5zM35 26h23v1H35zM60 26h42v1H60zM106 26h16v1H106zM126 26h60v1H126zM193 26h34v1H193zM234 26h15v1H234zM253 26h33v1H253zM293 26h26v1H293zM327 26h59v1H327zM393 26h37v1H393zM0 27h28v1H0zM35 27h67v1H35zM106 27h16v1H106zM126 27h59v1H126zM193 27h34v1H193zM234 27h15v1H234zM253 27h32v1H253zM293 27h25v1H293zM326 27h60v1H326zM394 27h36v1H394zM0 28h27v1H0zM35 28h67v1H35zM106 28h16v1H106zM126 28h59v1H126zM192 28h35v1H192zM234 28h15v1H234zM253 28h32v1H253zM292 28h25v1H292zM325 28h61v1H325zM395 28h35v1H395zM0 29h27v1H0zM35 29h67v1H35zM106 29h16v1H106zM126 29h59v1H126zM192 29h35v1H192zM234 29h15v1H234zM253 29h32v1H253zM292 29h25v1H292zM324 29h63v1H324zM397 29h33v1H397zM0 30h27v1H0zM34 30h68v1H34zM106 30h16v1H106zM126 30h59v1H126zM192 30h35v1H192zM234 30h15v1H234zM253 30h32v1H253zM292 30h24v1H292zM323 30h64v1H323zM401 30h29v1H401zM0 31h27v1H0zM34 31h68v1H34zM106 31h16v1H106zM126 31h58v1H126zM192 31h34v1H192zM234 31h15v1H234zM253 31h31v1H253zM292 31h22v1H292zM321 31h66v1H321zM405 31h25v1H405zM0 32h26v1H0zM34 32h68v1H34zM106 32h16v1H106zM126 32h58v1H126zM191 32h35v1H191zM234 32h15v1H234zM253 32h31v1H253zM291 32h21v1H291zM320 32h68v1H320zM409 32h21v1H409zM0 33h26v1H0zM34 33h68v1H34zM106 33h16v1H106zM126 33h58v1H126zM191 33h35v1H191zM234 33h15v1H234zM253 33h31v1H253zM291 33h19v1H291zM318 33h71v1H318zM412 33h18v1H412zM0 34h26v1H0zM33 34h69v1H33zM106 34h16v1H106zM126 34h58v1H126zM191 34h35v1H191zM234 34h15v1H234zM253 34h31v1H253zM291 34h15v1H291zM316 34h74v1H316zM414 34h16v1H414zM0 35h26v1H0zM33 35h69v1H33zM106 35h16v1H106zM126 35h57v1H126zM191 35h35v1H191zM234 35h15v1H234zM253 35h30v1H253zM313 35h78v1H313zM415 35h15v1H415zM0 36h25v1H0zM33 36h69v1H33zM106 36h16v1H106zM126 36h57v1H126zM190 36h35v1H190zM234 36h15v1H234zM253 36h30v1H253zM311 36h82v1H311zM416 36h14v1H416zM0 37h25v1H0zM33 37h69v1H33zM106 37h16v1H106zM126 37h57v1H126zM190 37h35v1H190zM233 37h16v1H233zM253 37h30v1H253zM290 37h15v1H290zM313 37h83v1H313zM417 37h13v1H417zM0 38h25v1H0zM32 38h70v1H32zM106 38h16v1H106zM126 38h57v1H126zM190 38h35v1H190zM233 38h16v1H233zM253 38h30v1H253zM290 38h17v1H290zM314 38h86v1H314zM417 38h13v1H417zM0 39h25v1H0zM32 39h70v1H32zM106 39h16v1H106zM126 39h56v1H126zM190 39h35v1H190zM233 39h16v1H233zM253 39h29v1H253zM290 39h19v1H290zM316 39h89v1H316zM418 39h12v1H418zM0 40h24v1H0zM32 40h70v1H32zM106 40h16v1H106zM126 40h56v1H126zM189 40h35v1H189zM232 40h17v1H232zM253 40h29v1H253zM289 40h21v1H289zM316 40h92v1H316zM418 40h12v1H418zM0 41h24v1H0zM32 41h70v1H32zM106 41h16v1H106zM126 41h56v1H126zM189 41h35v1H189zM232 41h17v1H232zM253 41h29v1H253zM289 41h21v1H289zM317 41h93v1H317zM419 41h11v1H419zM0 42h24v1H0zM31 42h71v1H31zM106 42h16v1H106zM126 42h56v1H126zM189 42h35v1H189zM231 42h18v1H231zM253 42h29v1H253zM289 42h22v1H289zM318 42h93v1H318zM419 42h11v1H419zM0 43h24v1H0zM31 43h71v1H31zM106 43h16v1H106zM126 43h55v1H126zM189 43h34v1H189zM231 43h18v1H231zM253 43h28v1H253zM289 43h22v1H289zM318 43h94v1H318zM419 43h11v1H419zM0 44h23v1H0zM31 44h71v1H31zM106 44h16v1H106zM126 44h55v1H126zM188 44h35v1H188zM230 44h19v1H230zM253 44h28v1H253zM288 44h23v1H288zM318 44h94v1H318zM419 44h11v1H419zM0 45h23v1H0zM31 45h71v1H31zM106 45h16v1H106zM126 45h55v1H126zM188 45h34v1H188zM230 45h19v1H230zM253 45h28v1H253zM288 45h23v1H288zM318 45h95v1H318zM419 45h11v1H419zM0 46h23v1H0zM30 46h72v1H30zM106 46h16v1H106zM126 46h55v1H126zM188 46h34v1H188zM229 46h20v1H229zM253 46h28v1H253zM288 46h23v1H288zM318 46h62v1H318zM382 46h31v1H382zM419 46h11v1H419zM0 47h23v1H0zM30 47h72v1H30zM106 47h16v1H106zM126 47h54v1H126zM188 47h33v1H188zM229 47h20v1H229zM253 47h27v1H253zM288 47h23v1H288zM318 47h62v1H318zM382 47h31v1H382zM419 47h11v1H419zM0 48h22v1H0zM30 48h72v1H30zM106 48h16v1H106zM126 48h54v1H126zM187 48h34v1H187zM228 48h21v1H228zM253 48h27v1H253zM288 48h22v1H288zM318 48h62v1H318zM382 48h31v1H382zM419 48h11v1H419zM0 49h22v1H0zM30 49h72v1H30zM106 49h16v1H106zM126 49h54v1H126zM187 49h33v1H187zM227 49h22v1H227zM253 49h27v1H253zM287 49h23v1H287zM318 49h61v1H318zM382 49h31v1H382zM419 49h11v1H419zM0 50h22v1H0zM29 50h73v1H29zM106 50h16v1H106zM126 50h54v1H126zM187 50h32v1H187zM227 50h22v1H227zM253 50h27v1H253zM287 50h23v1H287zM318 50h61v1H318zM382 50h31v1H382zM418 50h12v1H418zM0 51h22v1H0zM29 51h73v1H29zM106 51h16v1H106zM126 51h53v1H126zM187 51h32v1H187zM226 51h23v1H226zM253 51h26v1H253zM287 51h23v1H287zM318 51h61v1H318zM382 51h31v1H382zM418 51h12v1H418zM0 52h21v1H0zM29 52h73v1H29zM106 52h16v1H106zM126 52h53v1H126zM186 52h32v1H186zM225 52h24v1H225zM253 52h26v1H253zM287 52h22v1H287zM317 52h62v1H317zM382 52h31v1H382zM418 52h12v1H418zM0 53h21v1H0zM29 53h73v1H29zM106 53h16v1H106zM126 53h53v1H126zM186 53h31v1H186zM224 53h25v1H224zM253 53h26v1H253zM286 53h23v1H286zM317 53h61v1H317zM382 53h30v1H382zM417 53h13v1H417zM0 54h21v1H0zM29 54h73v1H29zM106 54h16v1H106zM126 54h53v1H126zM186 54h30v1H186zM223 54h26v1H223zM253 54h26v1H253zM286 54h23v1H286zM317 54h61v1H317zM382 54h30v1H382zM417 54h13v1H417zM0 55h21v1H0zM28 55h74v1H28zM106 55h16v1H106zM126 55h52v1H126zM186 55h29v1H186zM222 55h27v1H222zM253 55h25v1H253zM286 55h23v1H286zM317 55h26v1H317zM344 55h34v1H344zM382 55h29v1H382zM416 55h14v1H416zM0 56h20v1H0zM28 56h74v1H28zM106 56h16v1H106zM126 56h52v1H126zM185 56h29v1H185zM221 56h28v1H221zM253 56h25v1H253zM286 56h23v1H286zM317 56h11v1H317zM331 56h10v1H331zM347 56h31v1H347zM383 56h28v1H383zM415 56h15v1H415zM0 57h20v1H0zM28 57h74v1H28zM106 57h16v1H106zM126 57h52v1H126zM185 57h27v1H185zM219 57h30v1H219zM253 57h25v1H253zM285 57h24v1H285zM317 57h11v1H317zM331 57h9v1H331zM347 57h30v1H347zM383 57h27v1H383zM415 57h15v1H415zM0 58h20v1H0zM28 58h74v1H28zM106 58h16v1H106zM126 58h52v1H126zM185 58h26v1H185zM218 58h31v1H218zM253 58h25v1H253zM285 58h24v1H285zM317 58h11v1H317zM330 58h9v1H330zM348 58h29v1H348zM384 58h25v1H384zM414 58h16v1H414zM0 59h20v1H0zM27 59h75v1H27zM106 59h16v1H106zM126 59h51v1H126zM185 59h24v1H185zM217 59h32v1H217zM253 59h24v1H253zM285 59h24v1H285zM317 59h10v1H317zM330 59h9v1H330zM348 59h29v1H348zM385 59h23v1H385zM413 59h17v1H413zM0 60h19v1H0zM27 60h75v1H27zM106 60h16v1H106zM126 60h51v1H126zM184 60h23v1H184zM215 60h34v1H215zM253 60h24v1H253zM285 60h24v1H285zM317 60h9v1H317zM329 60h10v1H329zM349 60h28v1H349zM386 60h21v1H386zM412 60h18v1H412zM0 61h17v1H0zM28 61h48v1H28zM153 61h23v1H153zM184 61h19v1H184zM213 61h36v1H213zM253 61h23v1H253zM285 61h24v1H285zM317 61h9v1H317zM329 61h10v1H329zM349 61h27v1H349zM381 61h2v1H381zM387 61h18v1H387zM411 61h19v1H411zM0 62h7v1H0zM38 62h37v1H38zM154 62h14v1H154zM211 62h38v1H211zM253 62h16v1H253zM292 62h18v1H292zM317 62h8v1H317zM328 62h12v1H328zM349 62h27v1H349zM380 62h4v1H380zM389 62h14v1H389zM409 62h21v1H409zM0 63h7v1H0zM38 63h37v1H38zM154 63h14v1H154zM208 63h41v1H208zM253 63h15v1H253zM292 63h19v1H292zM318 63h5v1H318zM327 63h13v1H327zM349 63h27v1H349zM380 63h5v1H380zM393 63h7v1H393zM408 63h22v1H408zM0 64h7v1H0zM38 64h38v1H38zM153 64h15v1H153zM204 64h45v1H204zM253 64h16v1H253zM292 64h20v1H292zM326 64h16v1H326zM346 64h1v1H346zM349 64h27v1H349zM379 64h8v1H379zM406 64h24v1H406zM0 65h249v1H0zM253 65h61v1H253zM324 65h23v1H324zM349 65h26v1H349zM378 65h11v1H378zM404 65h26v1H404zM0 66h249v1H0zM253 66h65v1H253zM322 66h25v1H322zM349 66h27v1H349zM377 66h18v1H377zM399 66h31v1H399zM0 67h249v1H0zM253 67h94v1H253zM349 67h81v1H349zM0 68h249v1H0zM253 68h94v1H253zM349 68h81v1H349zM0 69h249v1H0zM253 69h93v1H253zM349 69h81v1H349zM0 70h249v1H0zM253 70h93v1H253zM348 70h82v1H348zM0 71h249v1H0zM253 71h93v1H253zM348 71h82v1H348zM0 72h249v1H0zM253 72h92v1H253zM348 72h82v1H348zM0 73h249v1H0zM253 73h92v1H253zM347 73h83v1H347zM0 74h249v1H0zM253 74h91v1H253zM347 74h83v1H347zM0 75h249v1H0zM253 75h91v1H253zM346 75h84v1H346zM0 76h249v1H0zM253 76h90v1H253zM346 76h84v1H346zM0 77h249v1H0zM253 77h89v1H253zM345 77h85v1H345zM0 78h249v1H0zM253 78h88v1H253zM344 78h86v1H344zM0 79h249v1H0zM253 79h87v1H253zM343 79h87v1H343zM0 80h249v1H0zM253 80h87v1H253zM342 80h88v1H342zM0 81h249v1H0zM253 81h177v1H253zM0 82h249v1H0zM253 82h177v1H253zM0 83h249v1H0zM253 83h177v1H253zM0 84h250v1H0zM253 84h177v1H253zM0 85h250v1H0zM252 85h178v1H252zM0 86h430v1H0zM0 87h430v1H0zM0 88h430v1H0z" /><path fill="#000000" d="M250 2h3v1H250zM249 3h4v1H249zM249 4h4v1H249zM249 5h4v1H249zM249 6h4v1H249zM401 6h12v1H401zM424 6h3v1H424zM103 7h3v1H103zM123 7h3v1H123zM183 7h33v1H183zM249 7h4v1H249zM283 7h29v1H283zM399 7h17v1H399zM424 7h3v1H424zM9 8h54v1H9zM102 8h4v1H102zM122 8h4v1H122zM182 8h39v1H182zM249 8h4v1H249zM282 8h36v1H282zM397 8h7v1H397zM411 8h6v1H411zM423 8h3v1H423zM9 9h54v1H9zM102 9h4v1H102zM122 9h4v1H122zM182 9h41v1H182zM249 9h4v1H249zM282 9h38v1H282zM395 9h6v1H395zM414 9h4v1H414zM422 9h4v1H422zM8 10h55v1H8zM102 10h4v1H102zM122 10h4v1H122zM188 10h10v1H188zM214 10h11v1H214zM249 10h4v1H249zM288 10h10v1H288zM312 10h10v1H312zM394 10h5v1H394zM415 10h4v1H415zM421 10h5v1H421zM8 11h8v1H8zM31 11h8v1H31zM55 11h8v1H55zM102 11h4v1H102zM122 11h4v1H122zM189 11h8v1H189zM218 11h8v1H218zM249 11h4v1H249zM289 11h8v1H289zM316 11h8v1H316zM392 11h5v1H392zM417 11h9v1H417zM8 12h5v1H8zM31 12h8v1H31zM57 12h6v1H57zM102 12h4v1H102zM122 12h4v1H122zM189 12h7v1H189zM220 12h8v1H220zM249 12h4v1H249zM289 12h7v1H289zM318 12h7v1H318zM391 12h5v1H391zM417 12h8v1H417zM7 13h5v1H7zM31 13h8v1H31zM58 13h4v1H58zM102 13h4v1H102zM122 13h4v1H122zM189 13h7v1H189zM221 13h8v1H221zM249 13h4v1H249zM289 13h7v1H289zM319 13h7v1H319zM390 13h5v1H390zM418 13h7v1H418zM7 14h4v1H7zM31 14h7v1H31zM58 14h4v1H58zM102 14h4v1H102zM122 14h4v1H122zM189 14h7v1H189zM222 14h8v1H222zM249 14h4v1H249zM289 14h7v1H289zM320 14h7v1H320zM390 14h4v1H390zM419 14h6v1H419zM6 15h4v1H6zM31 15h7v1H31zM59 15h3v1H59zM102 15h4v1H102zM122 15h4v1H122zM188 15h8v1H188zM223 15h7v1H223zM249 15h4v1H249zM288 15h8v1H288zM320 15h8v1H320zM389 15h5v1H389zM419 15h6v1H419zM6 16h4v1H6zM30 16h8v1H30zM59 16h3v1H59zM102 16h4v1H102zM122 16h4v1H122zM188 16h7v1H188zM224 16h7v1H224zM249 16h4v1H249zM288 16h8v1H288zM320 16h8v1H320zM388 16h5v1H388zM419 16h6v1H419zM6 17h3v1H6zM30 17h8v1H30zM59 17h3v1H59zM102 17h4v1H102zM122 17h4v1H122zM188 17h7v1H188zM225 17h7v1H225zM249 17h4v1H249zM288 17h7v1H288zM321 17h7v1H321zM388 17h5v1H388zM420 17h4v1H420zM5 18h4v1H5zM30 18h7v1H30zM59 18h3v1H59zM102 18h4v1H102zM122 18h4v1H122zM188 18h7v1H188zM225 18h7v1H225zM249 18h4v1H249zM288 18h7v1H288zM321 18h8v1H321zM387 18h5v1H387zM420 18h4v1H420zM5 19h3v1H5zM30 19h7v1H30zM59 19h3v1H59zM102 19h4v1H102zM122 19h4v1H122zM187 19h8v1H187zM226 19h7v1H226zM249 19h4v1H249zM287 19h8v1H287zM321 19h8v1H321zM387 19h5v1H387zM420 19h4v1H420zM5 20h3v1H5zM29 20h8v1H29zM59 20h2v1H59zM102 20h4v1H102zM122 20h4v1H122zM187 20h7v1H187zM226 20h7v1H226zM249 20h4v1H249zM287 20h8v1H287zM321 20h8v1H321zM386 20h6v1H386zM420 20h3v1H420zM4 21h3v1H4zM29 21h8v1H29zM59 21h2v1H59zM102 21h4v1H102zM122 21h4v1H122zM187 21h7v1H187zM226 21h7v1H226zM249 21h4v1H249zM287 21h7v1H287zM320 21h9v1H320zM386 21h6v1H386zM420 21h3v1H420zM4 22h3v1H4zM29 22h7v1H29zM58 22h3v1H58zM102 22h4v1H102zM122 22h4v1H122zM187 22h7v1H187zM227 22h7v1H227zM249 22h4v1H249zM287 22h7v1H287zM320 22h9v1H320zM386 22h6v1H386zM420 22h3v1H420zM4 23h2v1H4zM29 23h7v1H29zM58 23h3v1H58zM102 23h4v1H102zM122 23h4v1H122zM186 23h8v1H186zM227 23h7v1H227zM249 23h4v1H249zM286 23h8v1H286zM320 23h8v1H320zM386 23h6v1H386zM420 23h3v1H420zM3 24h3v1H3zM28 24h8v1H28zM58 24h3v1H58zM102 24h4v1H102zM122 24h4v1H122zM186 24h7v1H186zM227 24h7v1H227zM249 24h4v1H249zM286 24h7v1H286zM320 24h8v1H320zM386 24h6v1H386zM420 24h2v1H420zM3 25h3v1H3zM28 25h8v1H28zM58 25h3v1H58zM102 25h4v1H102zM122 25h4v1H122zM186 25h7v1H186zM227 25h7v1H227zM249 25h4v1H249zM286 25h7v1H286zM319 25h8v1H319zM386 25h6v1H386zM420 25h2v1H420zM3 26h2v1H3zM28 26h7v1H28zM58 26h2v1H58zM102 26h4v1H102zM122 26h4v1H122zM186 26h7v1H186zM227 26h7v1H227zM249 26h4v1H249zM286 26h7v1H286zM319 26h8v1H319zM386 26h7v1H386zM28 27h7v1H28zM102 27h4v1H102zM122 27h4v1H122zM185 27h8v1H185zM227 27h7v1H227zM249 27h4v1H249zM285 27h8v1H285zM318 27h8v1H318zM386 27h8v1H386zM27 28h8v1H27zM102 28h4v1H102zM122 28h4v1H122zM185 28h7v1H185zM227 28h7v1H227zM249 28h4v1H249zM285 28h7v1H285zM317 28h8v1H317zM386 28h9v1H386zM27 29h8v1H27zM102 29h4v1H102zM122 29h4v1H122zM185 29h7v1H185zM227 29h7v1H227zM249 29h4v1H249zM285 29h7v1H285zM317 29h7v1H317zM387 29h10v1H387zM27 30h7v1H27zM102 30h4v1H102zM122 30h4v1H122zM185 30h7v1H185zM227 30h7v1H227zM249 30h4v1H249zM285 30h7v1H285zM316 30h7v1H316zM387 30h14v1H387zM27 31h7v1H27zM102 31h4v1H102zM122 31h4v1H122zM184 31h8v1H184zM226 31h8v1H226zM249 31h4v1H249zM284 31h8v1H284zM314 31h7v1H314zM387 31h18v1H387zM26 32h8v1H26zM102 32h4v1H102zM122 32h4v1H122zM184 32h7v1H184zM226 32h8v1H226zM249 32h4v1H249zM284 32h7v1H284zM312 32h8v1H312zM388 32h21v1H388zM26 33h8v1H26zM102 33h4v1H102zM122 33h4v1H122zM184 33h7v1H184zM226 33h8v1H226zM249 33h4v1H249zM284 33h7v1H284zM310 33h8v1H310zM389 33h23v1H389zM26 34h7v1H26zM102 34h4v1H102zM122 34h4v1H122zM184 34h7v1H184zM226 34h8v1H226zM249 34h4v1H249zM284 34h7v1H284zM306 34h10v1H306zM390 34h24v1H390zM26 35h7v1H26zM102 35h4v1H102zM122 35h4v1H122zM183 35h8v1H183zM226 35h8v1H226zM249 35h4v1H249zM283 35h30v1H283zM391 35h24v1H391zM25 36h8v1H25zM102 36h4v1H102zM122 36h4v1H122zM183 36h7v1H183zM225 36h9v1H225zM249 36h4v1H249zM283 36h28v1H283zM393 36h23v1H393zM25 37h8v1H25zM102 37h4v1H102zM122 37h4v1H122zM183 37h7v1H183zM225 37h8v1H225zM249 37h4v1H249zM283 37h7v1H283zM305 37h8v1H305zM396 37h21v1H396zM25 38h7v1H25zM102 38h4v1H102zM122 38h4v1H122zM183 38h7v1H183zM225 38h8v1H225zM249 38h4v1H249zM283 38h7v1H283zM307 38h7v1H307zM400 38h17v1H400zM25 39h7v1H25zM102 39h4v1H102zM122 39h4v1H122zM182 39h8v1H182zM225 39h8v1H225zM249 39h4v1H249zM282 39h8v1H282zM309 39h7v1H309zM405 39h13v1H405zM24 40h8v1H24zM102 40h4v1H102zM122 40h4v1H122zM182 40h7v1H182zM224 40h8v1H224zM249 40h4v1H249zM282 40h7v1H282zM310 40h6v1H310zM408 40h10v1H408zM24 41h8v1H24zM102 41h4v1H102zM122 41h4v1H122zM182 41h7v1H182zM224 41h8v1H224zM249 41h4v1H249zM282 41h7v1H282zM310 41h7v1H310zM410 41h9v1H410zM24 42h7v1H24zM102 42h4v1H102zM122 42h4v1H122zM182 42h7v1H182zM224 42h7v1H224zM249 42h4v1H249zM282 42h7v1H282zM311 42h7v1H311zM411 42h8v1H411zM24 43h7v1H24zM102 43h4v1H102zM122 43h4v1H122zM181 43h8v1H181zM223 43h8v1H223zM249 43h4v1H249zM281 43h8v1H281zM311 43h7v1H311zM412 43h7v1H412zM23 44h8v1H23zM102 44h4v1H102zM122 44h4v1H122zM181 44h7v1H181zM223 44h7v1H223zM249 44h4v1H249zM281 44h7v1H281zM311 44h7v1H311zM412 44h7v1H412zM23 45h8v1H23zM102 45h4v1H102zM122 45h4v1H122zM181 45h7v1H181zM222 45h8v1H222zM249 45h4v1H249zM281 45h7v1H281zM311 45h7v1H311zM413 45h6v1H413zM23 46h7v1H23zM102 46h4v1H102zM122 46h4v1H122zM181 46h7v1H181zM222 46h7v1H222zM249 46h4v1H249zM281 46h7v1H281zM311 46h7v1H311zM380 46h2v1H380zM413 46h6v1H413zM23 47h7v1H23zM102 47h4v1H102zM122 47h4v1H122zM180 47h8v1H180zM221 47h8v1H221zM249 47h4v1H249zM280 47h8v1H280zM311 47h7v1H311zM380 47h2v1H380zM413 47h6v1H413zM22 48h8v1H22zM102 48h4v1H102zM122 48h4v1H122zM180 48h7v1H180zM221 48h7v1H221zM249 48h4v1H249zM280 48h8v1H280zM310 48h8v1H310zM380 48h2v1H380zM413 48h6v1H413zM22 49h8v1H22zM102 49h4v1H102zM122 49h4v1H122zM180 49h7v1H180zM220 49h7v1H220zM249 49h4v1H249zM280 49h7v1H280zM310 49h8v1H310zM379 49h3v1H379zM413 49h6v1H413zM22 50h7v1H22zM102 50h4v1H102zM122 50h4v1H122zM180 50h7v1H180zM219 50h8v1H219zM249 50h4v1H249zM280 50h7v1H280zM310 50h8v1H310zM379 50h3v1H379zM413 50h5v1H413zM22 51h7v1H22zM102 51h4v1H102zM122 51h4v1H122zM179 51h8v1H179zM219 51h7v1H219zM249 51h4v1H249zM279 51h8v1H279zM310 51h8v1H310zM379 51h3v1H379zM413 51h5v1H413zM21 52h8v1H21zM102 52h4v1H102zM122 52h4v1H122zM179 52h7v1H179zM218 52h7v1H218zM249 52h4v1H249zM279 52h8v1H279zM309 52h8v1H309zM379 52h3v1H379zM413 52h5v1H413zM21 53h8v1H21zM102 53h4v1H102zM122 53h4v1H122zM179 53h7v1H179zM217 53h7v1H217zM249 53h4v1H249zM279 53h7v1H279zM309 53h8v1H309zM378 53h4v1H378zM412 53h5v1H412zM21 54h8v1H21zM102 54h4v1H102zM122 54h4v1H122zM179 54h7v1H179zM216 54h7v1H216zM249 54h4v1H249zM279 54h7v1H279zM309 54h8v1H309zM378 54h4v1H378zM412 54h5v1H412zM21 55h7v1H21zM102 55h4v1H102zM122 55h4v1H122zM178 55h8v1H178zM215 55h7v1H215zM249 55h4v1H249zM278 55h8v1H278zM309 55h8v1H309zM343 55h1v1H343zM378 55h4v1H378zM411 55h5v1H411zM20 56h8v1H20zM102 56h4v1H102zM122 56h4v1H122zM178 56h7v1H178zM214 56h7v1H214zM249 56h4v1H249zM278 56h8v1H278zM309 56h8v1H309zM328 56h3v1H328zM341 56h6v1H341zM378 56h5v1H378zM411 56h4v1H411zM20 57h8v1H20zM102 57h4v1H102zM122 57h4v1H122zM178 57h7v1H178zM212 57h7v1H212zM249 57h4v1H249zM278 57h7v1H278zM309 57h8v1H309zM328 57h3v1H328zM340 57h7v1H340zM377 57h6v1H377zM410 57h5v1H410zM20 58h8v1H20zM102 58h4v1H102zM122 58h4v1H122zM178 58h7v1H178zM211 58h7v1H211zM249 58h4v1H249zM278 58h7v1H278zM309 58h8v1H309zM328 58h2v1H328zM339 58h9v1H339zM377 58h7v1H377zM409 58h5v1H409zM20 59h7v1H20zM102 59h4v1H102zM122 59h4v1H122zM177 59h8v1H177zM209 59h8v1H209zM249 59h4v1H249zM277 59h8v1H277zM309 59h8v1H309zM327 59h3v1H327zM339 59h9v1H339zM377 59h8v1H377zM408 59h5v1H408zM19 60h8v1H19zM102 60h4v1H102zM122 60h4v1H122zM177 60h7v1H177zM207 60h8v1H207zM249 60h4v1H249zM277 60h8v1H277zM309 60h8v1H309zM326 60h3v1H326zM339 60h10v1H339zM377 60h9v1H377zM407 60h5v1H407zM17 61h11v1H17zM76 61h77v1H76zM176 61h8v1H176zM203 61h10v1H203zM249 61h4v1H249zM276 61h9v1H276zM309 61h8v1H309zM326 61h3v1H326zM339 61h10v1H339zM376 61h5v1H376zM383 61h4v1H383zM405 61h6v1H405zM7 62h31v1H7zM75 62h79v1H75zM168 62h43v1H168zM249 62h4v1H249zM269 62h23v1H269zM310 62h7v1H310zM325 62h3v1H325zM340 62h9v1H340zM376 62h4v1H376zM384 62h5v1H384zM403 62h6v1H403zM7 63h31v1H7zM75 63h79v1H75zM168 63h40v1H168zM249 63h4v1H249zM268 63h24v1H268zM311 63h7v1H311zM323 63h4v1H323zM340 63h9v1H340zM376 63h4v1H376zM385 63h8v1H385zM400 63h8v1H400zM7 64h31v1H7zM76 64h77v1H76zM168 64h36v1H168zM249 64h4v1H249zM269 64h23v1H269zM312 64h14v1H312zM342 64h4v1H342zM347 64h2v1H347zM376 64h3v1H376zM387 64h19v1H387zM249 65h4v1H249zM314 65h10v1H314zM347 65h2v1H347zM375 65h3v1H375zM389 65h15v1H389zM249 66h4v1H249zM318 66h4v1H318zM347 66h2v1H347zM376 66h1v1H376zM395 66h4v1H395zM249 67h4v1H249zM347 67h2v1H347zM249 68h4v1H249zM347 68h2v1H347zM249 69h4v1H249zM346 69h3v1H346zM249 70h4v1H249zM346 70h2v1H346zM249 71h4v1H249zM346 71h2v1H346zM249 72h4v1H249zM345 72h3v1H345zM249 73h4v1H249zM345 73h2v1H345zM249 74h4v1H249zM344 74h3v1H344zM249 75h4v1H249zM344 75h2v1H344zM249 76h4v1H249zM343 76h3v1H343zM249 77h4v1H249zM342 77h3v1H342zM249 78h4v1H249zM341 78h3v1H341zM249 79h4v1H249zM340 79h3v1H340zM249 80h4v1H249zM340 80h2v1H340zM249 81h4v1H249zM249 82h4v1H249zM249 83h4v1H249zM250 84h3v1H250zM250 85h2v1H250z" /></g></svg>
